%TF.GenerationSoftware,KiCad,Pcbnew,8.0.2*%
%TF.CreationDate,2024-05-17T16:53:08+03:00*%
%TF.ProjectId,zamonaryboard,7a616d6f-6e61-4727-9962-6f6172642e6b,rev?*%
%TF.SameCoordinates,Original*%
%TF.FileFunction,Soldermask,Top*%
%TF.FilePolarity,Negative*%
%FSLAX46Y46*%
G04 Gerber Fmt 4.6, Leading zero omitted, Abs format (unit mm)*
G04 Created by KiCad (PCBNEW 8.0.2) date 2024-05-17 16:53:08*
%MOMM*%
%LPD*%
G01*
G04 APERTURE LIST*
G04 Aperture macros list*
%AMRoundRect*
0 Rectangle with rounded corners*
0 $1 Rounding radius*
0 $2 $3 $4 $5 $6 $7 $8 $9 X,Y pos of 4 corners*
0 Add a 4 corners polygon primitive as box body*
4,1,4,$2,$3,$4,$5,$6,$7,$8,$9,$2,$3,0*
0 Add four circle primitives for the rounded corners*
1,1,$1+$1,$2,$3*
1,1,$1+$1,$4,$5*
1,1,$1+$1,$6,$7*
1,1,$1+$1,$8,$9*
0 Add four rect primitives between the rounded corners*
20,1,$1+$1,$2,$3,$4,$5,0*
20,1,$1+$1,$4,$5,$6,$7,0*
20,1,$1+$1,$6,$7,$8,$9,0*
20,1,$1+$1,$8,$9,$2,$3,0*%
G04 Aperture macros list end*
%ADD10RoundRect,0.225000X0.225000X0.250000X-0.225000X0.250000X-0.225000X-0.250000X0.225000X-0.250000X0*%
%ADD11R,1.300000X1.550000*%
%ADD12RoundRect,0.150000X-0.512500X-0.150000X0.512500X-0.150000X0.512500X0.150000X-0.512500X0.150000X0*%
%ADD13RoundRect,0.225000X-0.225000X-0.250000X0.225000X-0.250000X0.225000X0.250000X-0.225000X0.250000X0*%
%ADD14RoundRect,0.225000X-0.250000X0.225000X-0.250000X-0.225000X0.250000X-0.225000X0.250000X0.225000X0*%
%ADD15RoundRect,0.050000X-0.387500X-0.050000X0.387500X-0.050000X0.387500X0.050000X-0.387500X0.050000X0*%
%ADD16RoundRect,0.050000X-0.050000X-0.387500X0.050000X-0.387500X0.050000X0.387500X-0.050000X0.387500X0*%
%ADD17R,5.600000X5.600000*%
%ADD18C,0.650000*%
%ADD19RoundRect,0.150000X0.150000X0.425000X-0.150000X0.425000X-0.150000X-0.425000X0.150000X-0.425000X0*%
%ADD20RoundRect,0.075000X0.075000X0.500000X-0.075000X0.500000X-0.075000X-0.500000X0.075000X-0.500000X0*%
%ADD21O,1.000000X2.100000*%
%ADD22O,1.000000X1.800000*%
%ADD23RoundRect,0.225000X0.250000X-0.225000X0.250000X0.225000X-0.250000X0.225000X-0.250000X-0.225000X0*%
G04 APERTURE END LIST*
D10*
%TO.C,C1*%
X136665000Y-78740000D03*
X135115000Y-78740000D03*
%TD*%
D11*
%TO.C,SW-RST1*%
X158278000Y-83223000D03*
X158278000Y-75273000D03*
X162778000Y-83223000D03*
X162778000Y-75273000D03*
%TD*%
%TO.C,SW1*%
X149642000Y-83223000D03*
X149642000Y-75273000D03*
X154142000Y-83223000D03*
X154142000Y-75273000D03*
%TD*%
D12*
%TO.C,U2*%
X130688500Y-81092000D03*
X130688500Y-82042000D03*
X130688500Y-82992000D03*
X132963500Y-82992000D03*
X132963500Y-81092000D03*
%TD*%
D13*
%TO.C,R1*%
X134340000Y-76200000D03*
X135890000Y-76200000D03*
%TD*%
D14*
%TO.C,C6*%
X144018000Y-82804000D03*
X144018000Y-84354000D03*
%TD*%
D15*
%TO.C,U1*%
X139502500Y-74170000D03*
X139502500Y-74570000D03*
X139502500Y-74970000D03*
X139502500Y-75370000D03*
X139502500Y-75770000D03*
X139502500Y-76170000D03*
X139502500Y-76570000D03*
X139502500Y-76970000D03*
X139502500Y-77370000D03*
X139502500Y-77770000D03*
X139502500Y-78170000D03*
X139502500Y-78570000D03*
X139502500Y-78970000D03*
X139502500Y-79370000D03*
D16*
X140340000Y-80207500D03*
X140740000Y-80207500D03*
X141140000Y-80207500D03*
X141540000Y-80207500D03*
X141940000Y-80207500D03*
X142340000Y-80207500D03*
X142740000Y-80207500D03*
X143140000Y-80207500D03*
X143540000Y-80207500D03*
X143940000Y-80207500D03*
X144340000Y-80207500D03*
X144740000Y-80207500D03*
X145140000Y-80207500D03*
X145540000Y-80207500D03*
D15*
X146377500Y-79370000D03*
X146377500Y-78970000D03*
X146377500Y-78570000D03*
X146377500Y-78170000D03*
X146377500Y-77770000D03*
X146377500Y-77370000D03*
X146377500Y-76970000D03*
X146377500Y-76570000D03*
X146377500Y-76170000D03*
X146377500Y-75770000D03*
X146377500Y-75370000D03*
X146377500Y-74970000D03*
X146377500Y-74570000D03*
X146377500Y-74170000D03*
D16*
X145540000Y-73332500D03*
X145140000Y-73332500D03*
X144740000Y-73332500D03*
X144340000Y-73332500D03*
X143940000Y-73332500D03*
X143540000Y-73332500D03*
X143140000Y-73332500D03*
X142740000Y-73332500D03*
X142340000Y-73332500D03*
X141940000Y-73332500D03*
X141540000Y-73332500D03*
X141140000Y-73332500D03*
X140740000Y-73332500D03*
X140340000Y-73332500D03*
D17*
X142940000Y-76770000D03*
%TD*%
D18*
%TO.C,J1*%
X130140000Y-77665000D03*
X124360000Y-77665000D03*
D19*
X130450000Y-78740000D03*
X129650000Y-78740000D03*
D20*
X128500000Y-78740000D03*
X127500000Y-78740000D03*
X127000000Y-78740000D03*
X126000000Y-78740000D03*
D19*
X124850000Y-78740000D03*
X124050000Y-78740000D03*
X124050000Y-78740000D03*
X124850000Y-78740000D03*
D20*
X125500000Y-78740000D03*
X126500000Y-78740000D03*
X128000000Y-78740000D03*
X129000000Y-78740000D03*
D19*
X129650000Y-78740000D03*
X130450000Y-78740000D03*
D21*
X131570000Y-78165000D03*
D22*
X131570000Y-73985000D03*
D21*
X122930000Y-78165000D03*
D22*
X122930000Y-73985000D03*
%TD*%
D10*
%TO.C,C5*%
X140208000Y-83820000D03*
X138658000Y-83820000D03*
%TD*%
%TO.C,C2*%
X136652000Y-82296000D03*
X135102000Y-82296000D03*
%TD*%
%TO.C,C3*%
X136678000Y-80391000D03*
X135128000Y-80391000D03*
%TD*%
%TO.C,R2*%
X135890000Y-74435000D03*
X134340000Y-74435000D03*
%TD*%
D23*
%TO.C,C7*%
X142240000Y-84354000D03*
X142240000Y-82804000D03*
%TD*%
D10*
%TO.C,C4*%
X140234000Y-82296000D03*
X138684000Y-82296000D03*
%TD*%
M02*
