%TF.GenerationSoftware,KiCad,Pcbnew,8.0.2*%
%TF.CreationDate,2024-05-17T16:53:07+03:00*%
%TF.ProjectId,zamonaryboard,7a616d6f-6e61-4727-9962-6f6172642e6b,rev?*%
%TF.SameCoordinates,Original*%
%TF.FileFunction,Copper,L1,Top*%
%TF.FilePolarity,Positive*%
%FSLAX46Y46*%
G04 Gerber Fmt 4.6, Leading zero omitted, Abs format (unit mm)*
G04 Created by KiCad (PCBNEW 8.0.2) date 2024-05-17 16:53:07*
%MOMM*%
%LPD*%
G01*
G04 APERTURE LIST*
G04 Aperture macros list*
%AMRoundRect*
0 Rectangle with rounded corners*
0 $1 Rounding radius*
0 $2 $3 $4 $5 $6 $7 $8 $9 X,Y pos of 4 corners*
0 Add a 4 corners polygon primitive as box body*
4,1,4,$2,$3,$4,$5,$6,$7,$8,$9,$2,$3,0*
0 Add four circle primitives for the rounded corners*
1,1,$1+$1,$2,$3*
1,1,$1+$1,$4,$5*
1,1,$1+$1,$6,$7*
1,1,$1+$1,$8,$9*
0 Add four rect primitives between the rounded corners*
20,1,$1+$1,$2,$3,$4,$5,0*
20,1,$1+$1,$4,$5,$6,$7,0*
20,1,$1+$1,$6,$7,$8,$9,0*
20,1,$1+$1,$8,$9,$2,$3,0*%
G04 Aperture macros list end*
%TA.AperFunction,SMDPad,CuDef*%
%ADD10RoundRect,0.225000X0.225000X0.250000X-0.225000X0.250000X-0.225000X-0.250000X0.225000X-0.250000X0*%
%TD*%
%TA.AperFunction,SMDPad,CuDef*%
%ADD11R,1.300000X1.550000*%
%TD*%
%TA.AperFunction,SMDPad,CuDef*%
%ADD12RoundRect,0.150000X-0.512500X-0.150000X0.512500X-0.150000X0.512500X0.150000X-0.512500X0.150000X0*%
%TD*%
%TA.AperFunction,SMDPad,CuDef*%
%ADD13RoundRect,0.225000X-0.225000X-0.250000X0.225000X-0.250000X0.225000X0.250000X-0.225000X0.250000X0*%
%TD*%
%TA.AperFunction,SMDPad,CuDef*%
%ADD14RoundRect,0.225000X-0.250000X0.225000X-0.250000X-0.225000X0.250000X-0.225000X0.250000X0.225000X0*%
%TD*%
%TA.AperFunction,SMDPad,CuDef*%
%ADD15RoundRect,0.050000X-0.387500X-0.050000X0.387500X-0.050000X0.387500X0.050000X-0.387500X0.050000X0*%
%TD*%
%TA.AperFunction,SMDPad,CuDef*%
%ADD16RoundRect,0.050000X-0.050000X-0.387500X0.050000X-0.387500X0.050000X0.387500X-0.050000X0.387500X0*%
%TD*%
%TA.AperFunction,HeatsinkPad*%
%ADD17R,5.600000X5.600000*%
%TD*%
%TA.AperFunction,SMDPad,CuDef*%
%ADD18RoundRect,0.150000X0.150000X0.425000X-0.150000X0.425000X-0.150000X-0.425000X0.150000X-0.425000X0*%
%TD*%
%TA.AperFunction,SMDPad,CuDef*%
%ADD19RoundRect,0.075000X0.075000X0.500000X-0.075000X0.500000X-0.075000X-0.500000X0.075000X-0.500000X0*%
%TD*%
%TA.AperFunction,ComponentPad*%
%ADD20O,1.000000X2.100000*%
%TD*%
%TA.AperFunction,ComponentPad*%
%ADD21O,1.000000X1.800000*%
%TD*%
%TA.AperFunction,SMDPad,CuDef*%
%ADD22RoundRect,0.225000X0.250000X-0.225000X0.250000X0.225000X-0.250000X0.225000X-0.250000X-0.225000X0*%
%TD*%
%TA.AperFunction,ViaPad*%
%ADD23C,0.800000*%
%TD*%
%TA.AperFunction,Conductor*%
%ADD24C,0.250000*%
%TD*%
%TA.AperFunction,Conductor*%
%ADD25C,0.200000*%
%TD*%
G04 APERTURE END LIST*
D10*
%TO.P,C1,1*%
%TO.N,Net-(C1-Pad1)*%
X136665000Y-78740000D03*
%TO.P,C1,2*%
%TO.N,GND*%
X135115000Y-78740000D03*
%TD*%
D11*
%TO.P,SW-RST1,1,1*%
%TO.N,GND*%
X158278000Y-83223000D03*
X158278000Y-75273000D03*
%TO.P,SW-RST1,2,2*%
%TO.N,Net-(U1-CHIP_PU{slash}RESET)*%
X162778000Y-83223000D03*
X162778000Y-75273000D03*
%TD*%
%TO.P,SW1,1,1*%
%TO.N,Net-(U1-GPIO0{slash}BOOT)*%
X149642000Y-83223000D03*
X149642000Y-75273000D03*
%TO.P,SW1,2,2*%
%TO.N,GND*%
X154142000Y-83223000D03*
X154142000Y-75273000D03*
%TD*%
D12*
%TO.P,U2,1,V_{IN}*%
%TO.N,VBUS*%
X130688500Y-81092000D03*
%TO.P,U2,2,V_{SS}*%
%TO.N,GND*%
X130688500Y-82042000D03*
%TO.P,U2,3,CE*%
%TO.N,VBUS*%
X130688500Y-82992000D03*
%TO.P,U2,4,NC*%
%TO.N,unconnected-(U2-NC-Pad4)*%
X132963500Y-82992000D03*
%TO.P,U2,5,V_{OUT}*%
%TO.N,+3V3*%
X132963500Y-81092000D03*
%TD*%
D13*
%TO.P,R1,1*%
%TO.N,Net-(J1-CC1)*%
X134340000Y-76200000D03*
%TO.P,R1,2*%
%TO.N,GND*%
X135890000Y-76200000D03*
%TD*%
D14*
%TO.P,C6,1*%
%TO.N,+3V3*%
X144018000Y-82804000D03*
%TO.P,C6,2*%
%TO.N,GND*%
X144018000Y-84354000D03*
%TD*%
D15*
%TO.P,U1,1,VDDA*%
%TO.N,+3V3*%
X139502500Y-74170000D03*
%TO.P,U1,2,LNA_IN/RF*%
%TO.N,unconnected-(U1-LNA_IN{slash}RF-Pad2)*%
X139502500Y-74570000D03*
%TO.P,U1,3,VDD3P3*%
%TO.N,Net-(C1-Pad1)*%
X139502500Y-74970000D03*
%TO.P,U1,4,VDD3P3*%
X139502500Y-75370000D03*
%TO.P,U1,5,GPIO0/BOOT*%
%TO.N,Net-(U1-GPIO0{slash}BOOT)*%
X139502500Y-75770000D03*
%TO.P,U1,6,GPIO1/ADC1_CH0*%
%TO.N,unconnected-(U1-GPIO1{slash}ADC1_CH0-Pad6)*%
X139502500Y-76170000D03*
%TO.P,U1,7,GPIO2/ADC1_CH1*%
%TO.N,unconnected-(U1-GPIO2{slash}ADC1_CH1-Pad7)*%
X139502500Y-76570000D03*
%TO.P,U1,8,GPIO3/ADC1_CH2*%
%TO.N,BTN1*%
X139502500Y-76970000D03*
%TO.P,U1,9,GPIO4/ADC1_CH3*%
%TO.N,unconnected-(U1-GPIO4{slash}ADC1_CH3-Pad9)*%
X139502500Y-77370000D03*
%TO.P,U1,10,GPIO5/ADC1_CH4*%
%TO.N,BTN2*%
X139502500Y-77770000D03*
%TO.P,U1,11,GPIO6/ADC1_CH5*%
%TO.N,unconnected-(U1-GPIO6{slash}ADC1_CH5-Pad11)*%
X139502500Y-78170000D03*
%TO.P,U1,12,GPIO7/ADC1_CH6*%
%TO.N,unconnected-(U1-GPIO7{slash}ADC1_CH6-Pad12)*%
X139502500Y-78570000D03*
%TO.P,U1,13,GPIO8/ADC1_CH7*%
%TO.N,unconnected-(U1-GPIO8{slash}ADC1_CH7-Pad13)*%
X139502500Y-78970000D03*
%TO.P,U1,14,GPIO9/ADC1_CH8*%
%TO.N,unconnected-(U1-GPIO9{slash}ADC1_CH8-Pad14)*%
X139502500Y-79370000D03*
D16*
%TO.P,U1,15,GPIO10/ADC1_CH9*%
%TO.N,unconnected-(U1-GPIO10{slash}ADC1_CH9-Pad15)*%
X140340000Y-80207500D03*
%TO.P,U1,16,GPIO11/ADC2_CH0*%
%TO.N,unconnected-(U1-GPIO11{slash}ADC2_CH0-Pad16)*%
X140740000Y-80207500D03*
%TO.P,U1,17,GPIO12/ADC2_CH1*%
%TO.N,unconnected-(U1-GPIO12{slash}ADC2_CH1-Pad17)*%
X141140000Y-80207500D03*
%TO.P,U1,18,GPIO13/ADC2_CH2*%
%TO.N,unconnected-(U1-GPIO13{slash}ADC2_CH2-Pad18)*%
X141540000Y-80207500D03*
%TO.P,U1,19,GPIO14/ADC2_CH3*%
%TO.N,unconnected-(U1-GPIO14{slash}ADC2_CH3-Pad19)*%
X141940000Y-80207500D03*
%TO.P,U1,20,VDD3P3_RTC*%
%TO.N,+3V3*%
X142340000Y-80207500D03*
%TO.P,U1,21,GPIO15/ADC2_CH4/XTAL_32K_P*%
%TO.N,unconnected-(U1-GPIO15{slash}ADC2_CH4{slash}XTAL_32K_P-Pad21)*%
X142740000Y-80207500D03*
%TO.P,U1,22,GPIO16/ADC2_CH5/XTAL_32K_N*%
%TO.N,unconnected-(U1-GPIO16{slash}ADC2_CH5{slash}XTAL_32K_N-Pad22)*%
X143140000Y-80207500D03*
%TO.P,U1,23,GPIO17/ADC2_CH6/DAC_1*%
%TO.N,unconnected-(U1-GPIO17{slash}ADC2_CH6{slash}DAC_1-Pad23)*%
X143540000Y-80207500D03*
%TO.P,U1,24,GPIO18/ADC2_CH7/DAC_2*%
%TO.N,unconnected-(U1-GPIO18{slash}ADC2_CH7{slash}DAC_2-Pad24)*%
X143940000Y-80207500D03*
%TO.P,U1,25,GPIO19/ADC2_CH8/USB_D-*%
%TO.N,D-*%
X144340000Y-80207500D03*
%TO.P,U1,26,GPIO20/ADC2_CH9/USB_D+*%
%TO.N,D+*%
X144740000Y-80207500D03*
%TO.P,U1,27,VDD3P3_RTC_IO*%
%TO.N,+3V3*%
X145140000Y-80207500D03*
%TO.P,U1,28,GPIO21*%
%TO.N,unconnected-(U1-GPIO21-Pad28)*%
X145540000Y-80207500D03*
D15*
%TO.P,U1,29,SPI_CS1/GPIO26*%
%TO.N,unconnected-(U1-SPI_CS1{slash}GPIO26-Pad29)*%
X146377500Y-79370000D03*
%TO.P,U1,30,VDD_SPI*%
%TO.N,unconnected-(U1-VDD_SPI-Pad30)*%
X146377500Y-78970000D03*
%TO.P,U1,31,SPIHD/GPIO27*%
%TO.N,unconnected-(U1-SPIHD{slash}GPIO27-Pad31)*%
X146377500Y-78570000D03*
%TO.P,U1,32,SPIWP/GPIO28*%
%TO.N,unconnected-(U1-SPIWP{slash}GPIO28-Pad32)*%
X146377500Y-78170000D03*
%TO.P,U1,33,SPICS0/GPIO29*%
%TO.N,unconnected-(U1-SPICS0{slash}GPIO29-Pad33)*%
X146377500Y-77770000D03*
%TO.P,U1,34,SPICLK/GPIO30*%
%TO.N,unconnected-(U1-SPICLK{slash}GPIO30-Pad34)*%
X146377500Y-77370000D03*
%TO.P,U1,35,SPIQ/GPIO31*%
%TO.N,unconnected-(U1-SPIQ{slash}GPIO31-Pad35)*%
X146377500Y-76970000D03*
%TO.P,U1,36,SPID/GPIO32*%
%TO.N,unconnected-(U1-SPID{slash}GPIO32-Pad36)*%
X146377500Y-76570000D03*
%TO.P,U1,37,GPIO33*%
%TO.N,unconnected-(U1-GPIO33-Pad37)*%
X146377500Y-76170000D03*
%TO.P,U1,38,GPIO34*%
%TO.N,unconnected-(U1-GPIO34-Pad38)*%
X146377500Y-75770000D03*
%TO.P,U1,39,GPIO35*%
%TO.N,unconnected-(U1-GPIO35-Pad39)*%
X146377500Y-75370000D03*
%TO.P,U1,40,GPIO36*%
%TO.N,unconnected-(U1-GPIO36-Pad40)*%
X146377500Y-74970000D03*
%TO.P,U1,41,GPIO37*%
%TO.N,unconnected-(U1-GPIO37-Pad41)*%
X146377500Y-74570000D03*
%TO.P,U1,42,GPIO38*%
%TO.N,unconnected-(U1-GPIO38-Pad42)*%
X146377500Y-74170000D03*
D16*
%TO.P,U1,43,MTCK/JTAG/GPIO39*%
%TO.N,unconnected-(U1-MTCK{slash}JTAG{slash}GPIO39-Pad43)*%
X145540000Y-73332500D03*
%TO.P,U1,44,MTDO/JTAG/GPIO40*%
%TO.N,unconnected-(U1-MTDO{slash}JTAG{slash}GPIO40-Pad44)*%
X145140000Y-73332500D03*
%TO.P,U1,45,VDD3P3_CPU*%
%TO.N,+3V3*%
X144740000Y-73332500D03*
%TO.P,U1,46,MTDI/JTAG/GPIO41*%
%TO.N,unconnected-(U1-MTDI{slash}JTAG{slash}GPIO41-Pad46)*%
X144340000Y-73332500D03*
%TO.P,U1,47,MTMS/JTAG/GPIO42*%
%TO.N,unconnected-(U1-MTMS{slash}JTAG{slash}GPIO42-Pad47)*%
X143940000Y-73332500D03*
%TO.P,U1,48,U0TXD/GPIO43*%
%TO.N,unconnected-(U1-U0TXD{slash}GPIO43-Pad48)*%
X143540000Y-73332500D03*
%TO.P,U1,49,U0RXD/GPIO44*%
%TO.N,unconnected-(U1-U0RXD{slash}GPIO44-Pad49)*%
X143140000Y-73332500D03*
%TO.P,U1,50,GPIO45*%
%TO.N,unconnected-(U1-GPIO45-Pad50)*%
X142740000Y-73332500D03*
%TO.P,U1,51,VDDA*%
%TO.N,+3V3*%
X142340000Y-73332500D03*
%TO.P,U1,52,XTAL_N*%
%TO.N,unconnected-(U1-XTAL_N-Pad52)*%
X141940000Y-73332500D03*
%TO.P,U1,53,XTAL_P*%
%TO.N,unconnected-(U1-XTAL_P-Pad53)*%
X141540000Y-73332500D03*
%TO.P,U1,54,VDDA*%
%TO.N,+3V3*%
X141140000Y-73332500D03*
%TO.P,U1,55,GPIO46*%
%TO.N,unconnected-(U1-GPIO46-Pad55)*%
X140740000Y-73332500D03*
%TO.P,U1,56,CHIP_PU/RESET*%
%TO.N,Net-(U1-CHIP_PU{slash}RESET)*%
X140340000Y-73332500D03*
D17*
%TO.P,U1,57,GND*%
%TO.N,GND*%
X142940000Y-76770000D03*
%TD*%
D18*
%TO.P,J1,A1,GND*%
%TO.N,GND*%
X130450000Y-78740000D03*
%TO.P,J1,A4,VBUS*%
%TO.N,VBUS*%
X129650000Y-78740000D03*
D19*
%TO.P,J1,A5,CC1*%
%TO.N,Net-(J1-CC1)*%
X128500000Y-78740000D03*
%TO.P,J1,A6,D+*%
%TO.N,D+*%
X127500000Y-78740000D03*
%TO.P,J1,A7,D-*%
%TO.N,D-*%
X127000000Y-78740000D03*
%TO.P,J1,A8*%
%TO.N,N/C*%
X126000000Y-78740000D03*
D18*
%TO.P,J1,A9,VBUS*%
%TO.N,VBUS*%
X124850000Y-78740000D03*
%TO.P,J1,A12,GND*%
%TO.N,GND*%
X124050000Y-78740000D03*
%TO.P,J1,B1,GND*%
X124050000Y-78740000D03*
%TO.P,J1,B4,VBUS*%
%TO.N,VBUS*%
X124850000Y-78740000D03*
D19*
%TO.P,J1,B5,CC2*%
%TO.N,Net-(J1-CC2)*%
X125500000Y-78740000D03*
%TO.P,J1,B6,D+*%
%TO.N,D+*%
X126500000Y-78740000D03*
%TO.P,J1,B7,D-*%
%TO.N,D-*%
X128000000Y-78740000D03*
%TO.P,J1,B8*%
%TO.N,N/C*%
X129000000Y-78740000D03*
D18*
%TO.P,J1,B9,VBUS*%
%TO.N,VBUS*%
X129650000Y-78740000D03*
%TO.P,J1,B12,GND*%
%TO.N,GND*%
X130450000Y-78740000D03*
D20*
%TO.P,J1,S1,SHIELD*%
X131570000Y-78165000D03*
D21*
X131570000Y-73985000D03*
D20*
X122930000Y-78165000D03*
D21*
X122930000Y-73985000D03*
%TD*%
D10*
%TO.P,C5,1*%
%TO.N,+3V3*%
X140208000Y-83820000D03*
%TO.P,C5,2*%
%TO.N,GND*%
X138658000Y-83820000D03*
%TD*%
%TO.P,C2,1*%
%TO.N,Net-(C1-Pad1)*%
X136652000Y-82296000D03*
%TO.P,C2,2*%
%TO.N,GND*%
X135102000Y-82296000D03*
%TD*%
%TO.P,C3,1*%
%TO.N,Net-(C1-Pad1)*%
X136678000Y-80391000D03*
%TO.P,C3,2*%
%TO.N,GND*%
X135128000Y-80391000D03*
%TD*%
%TO.P,R2,1*%
%TO.N,GND*%
X135890000Y-74435000D03*
%TO.P,R2,2*%
%TO.N,Net-(J1-CC2)*%
X134340000Y-74435000D03*
%TD*%
D22*
%TO.P,C7,1*%
%TO.N,GND*%
X142240000Y-84354000D03*
%TO.P,C7,2*%
%TO.N,+3V3*%
X142240000Y-82804000D03*
%TD*%
D10*
%TO.P,C4,1*%
%TO.N,+3V3*%
X140234000Y-82296000D03*
%TO.P,C4,2*%
%TO.N,GND*%
X138684000Y-82296000D03*
%TD*%
D23*
%TO.N,GND*%
X142113000Y-75946000D03*
X143891000Y-77724000D03*
X143002000Y-75946000D03*
X143891000Y-76835000D03*
X143002000Y-76835000D03*
X142113000Y-76835000D03*
X143002000Y-77724000D03*
X143891000Y-75946000D03*
X137414000Y-84074000D03*
X142113000Y-77724000D03*
%TO.N,D+*%
X144637588Y-81523362D03*
X127508000Y-77216000D03*
%TO.N,VBUS*%
X128524000Y-81026000D03*
X128524000Y-83058000D03*
%TO.N,D-*%
X143637000Y-81534000D03*
X129286000Y-76327000D03*
%TO.N,Net-(U1-CHIP_PU{slash}RESET)*%
X160528000Y-75184000D03*
X139192000Y-73152000D03*
%TO.N,Net-(U1-GPIO0{slash}BOOT)*%
X151892000Y-75184000D03*
X137922000Y-76454000D03*
%TO.N,BTN2*%
X156972000Y-99314000D03*
X137922000Y-78994000D03*
%TO.N,BTN1*%
X137922000Y-77724000D03*
X132080000Y-99314000D03*
%TD*%
D24*
%TO.N,GND*%
X133518413Y-78165000D02*
X131840336Y-78165000D01*
X135115000Y-79047500D02*
X135115000Y-80368807D01*
X123312313Y-78547313D02*
X122930000Y-78165000D01*
X131187686Y-78547313D02*
X131378843Y-78356156D01*
X135890000Y-74998490D02*
X135890000Y-76200000D01*
X154142000Y-83223000D02*
X158278000Y-83223000D01*
X135503551Y-82697551D02*
X135115000Y-82309000D01*
X138224394Y-84074000D02*
X137414000Y-84074000D01*
X131277551Y-79567551D02*
X130642686Y-78932686D01*
X126378552Y-81643551D02*
X124253292Y-79518291D01*
X135128000Y-82251615D02*
X135128000Y-80400192D01*
X134990582Y-85794000D02*
X151007509Y-85794000D01*
X132167487Y-73635000D02*
X134526509Y-73635000D01*
X138246000Y-83458000D02*
X138590322Y-83802322D01*
X154142000Y-75273000D02*
X154142000Y-83223000D01*
X130357249Y-82042000D02*
X130688499Y-82042000D01*
X137372054Y-83096000D02*
X136465490Y-83096000D01*
X123777500Y-78740000D02*
X124050000Y-78740000D01*
X139059551Y-84221551D02*
X138675677Y-83837677D01*
X138237553Y-82742446D02*
X138684000Y-82296000D01*
X131914969Y-83281877D02*
X134028643Y-85395551D01*
X135491551Y-74036551D02*
X135488448Y-74033448D01*
X134212500Y-78452500D02*
X134282564Y-78522564D01*
X135890000Y-76200000D02*
X134212500Y-77877500D01*
X131676000Y-82704954D02*
X131676000Y-82596811D01*
X127340491Y-82042000D02*
X129694750Y-82042000D01*
X122930000Y-78165000D02*
X122930000Y-73985000D01*
X138531000Y-83947000D02*
X138658000Y-83820000D01*
X131676000Y-80529490D02*
X131676000Y-81487188D01*
X130357249Y-82042000D02*
X129694750Y-82042000D01*
X151969448Y-85395551D02*
X154142000Y-83223000D01*
X154142000Y-75273000D02*
X158278000Y-75273000D01*
X142428090Y-84354000D02*
X144018000Y-84354000D01*
X141785909Y-84620000D02*
X140021490Y-84620000D01*
X139059551Y-84221551D02*
G75*
G03*
X140021490Y-84620003I961949J961951D01*
G01*
X131513499Y-82204500D02*
G75*
G03*
X131121188Y-82042005I-392299J-392300D01*
G01*
X131513499Y-82204500D02*
G75*
G02*
X131513499Y-81879499I162501J162500D01*
G01*
X126378552Y-81643551D02*
G75*
G03*
X127340491Y-82042002I961948J961951D01*
G01*
X134282564Y-78522564D02*
G75*
G03*
X134807500Y-78739991I524936J524964D01*
G01*
X141785909Y-84620000D02*
G75*
G03*
X142106997Y-84486997I-9J454100D01*
G01*
X123312313Y-78547313D02*
G75*
G03*
X123777500Y-78739992I465187J465213D01*
G01*
X131121188Y-82042000D02*
G75*
G03*
X131513503Y-81879503I12J554800D01*
G01*
X137372054Y-83096000D02*
G75*
G03*
X138237575Y-82742469I5946J1221700D01*
G01*
X134212500Y-78452500D02*
G75*
G03*
X133518413Y-78164994I-694100J-694100D01*
G01*
X134212500Y-77877500D02*
G75*
G02*
X133518413Y-78165006I-694100J694100D01*
G01*
X131914969Y-83281877D02*
G75*
G02*
X131676035Y-82704954I576931J576877D01*
G01*
X138531000Y-83947000D02*
G75*
G02*
X138224394Y-84073998I-306600J306600D01*
G01*
X131676000Y-81487188D02*
G75*
G02*
X131513503Y-81879503I-554800J-12D01*
G01*
X135488448Y-74033448D02*
G75*
G03*
X134526509Y-73634997I-961948J-961952D01*
G01*
X135491551Y-74036551D02*
G75*
G02*
X135890003Y-74998490I-961951J-961949D01*
G01*
X136465490Y-83096000D02*
G75*
G02*
X135503553Y-82697549I10J1360400D01*
G01*
X151969448Y-85395551D02*
G75*
G02*
X151007509Y-85794002I-961948J961951D01*
G01*
X131513499Y-82204500D02*
G75*
G02*
X131675995Y-82596811I-392299J-392300D01*
G01*
X124253292Y-79518291D02*
G75*
G02*
X124050005Y-79027499I490808J490791D01*
G01*
X134990582Y-85794000D02*
G75*
G02*
X134028649Y-85395545I18J1360400D01*
G01*
X134212500Y-78452500D02*
G75*
G02*
X134212500Y-77877500I287500J287500D01*
G01*
X132167487Y-73635000D02*
G75*
G03*
X131745004Y-73810004I13J-597500D01*
G01*
X130722500Y-78740000D02*
G75*
G03*
X131187692Y-78547319I0J657900D01*
G01*
X138237553Y-82742446D02*
G75*
G03*
X138245998Y-83458002I362147J-353554D01*
G01*
X131676000Y-80529490D02*
G75*
G03*
X131277549Y-79567553I-1360400J-10D01*
G01*
X137372054Y-83096000D02*
G75*
G02*
X138246013Y-83457987I46J-1235900D01*
G01*
X130722500Y-78740000D02*
G75*
G03*
X130642654Y-78932718I0J-112900D01*
G01*
%TO.N,Net-(C1-Pad1)*%
X137031131Y-76765359D02*
X137031131Y-78194245D01*
X139152500Y-75345000D02*
X138451490Y-75345000D01*
X139152500Y-75345000D02*
X139502500Y-74995000D01*
X136665000Y-79000215D02*
X136665000Y-80360314D01*
X136652000Y-80435384D02*
X136652000Y-82296000D01*
X137429579Y-75803420D02*
X137489551Y-75743447D01*
X137429579Y-75803420D02*
G75*
G03*
X137031097Y-76765359I961921J-961980D01*
G01*
X137031131Y-78194245D02*
G75*
G02*
X136849006Y-78556006I-655231J103145D01*
G01*
X137489551Y-75743447D02*
G75*
G02*
X138451490Y-75344996I961949J-961953D01*
G01*
D25*
%TO.N,+3V3*%
X147115000Y-80159509D02*
X147115000Y-75176213D01*
D24*
X144759270Y-83545270D02*
X144053691Y-82839691D01*
D25*
X145340000Y-72595000D02*
X145087635Y-72595000D01*
X141140000Y-72942635D02*
X141140000Y-73332500D01*
D24*
X140208000Y-82340384D02*
X140208000Y-83820000D01*
D25*
X146016628Y-72875268D02*
X146716551Y-73575191D01*
X139221250Y-74170000D02*
X139502500Y-74170000D01*
X142340000Y-81156525D02*
X142340000Y-80207500D01*
X140966680Y-72625320D02*
X141038180Y-72696820D01*
X138430000Y-73299375D02*
X138430000Y-73257839D01*
X142687635Y-72595000D02*
X144392364Y-72595000D01*
D24*
X144526000Y-82804000D02*
X144018000Y-82804000D01*
X146124394Y-81713605D02*
X145393210Y-82444789D01*
X141552394Y-82624394D02*
X141478000Y-82550000D01*
D25*
X144740000Y-72942635D02*
X144740000Y-73332500D01*
X147115000Y-75163786D02*
X147115000Y-74537130D01*
X141487635Y-72595000D02*
X141992364Y-72595000D01*
X146716551Y-81121447D02*
X146483605Y-81354394D01*
D24*
X144660525Y-84970525D02*
X144759270Y-84871781D01*
X143758880Y-85344000D02*
X137454438Y-85344000D01*
D25*
X142356599Y-81243549D02*
X143881358Y-82768308D01*
X142340000Y-72942635D02*
X142340000Y-73332500D01*
X145140000Y-80542750D02*
X145140000Y-80207500D01*
X146483605Y-81354394D02*
X146124394Y-81713605D01*
X141478000Y-82042000D02*
X142323400Y-81196599D01*
X140864789Y-82296000D02*
X140252384Y-82296000D01*
X138741126Y-73971126D02*
X138685000Y-73915000D01*
X139235839Y-72452000D02*
X140548248Y-72452000D01*
X145377057Y-81115057D02*
X145616394Y-81354394D01*
D24*
X136492499Y-84945551D02*
X133078246Y-81531298D01*
D25*
X142340000Y-81156525D02*
X142340000Y-81203475D01*
X142238180Y-72696820D02*
G75*
G03*
X142441820Y-72696820I101820J101821D01*
G01*
X144638180Y-72696820D02*
G75*
G03*
X144841820Y-72696820I101820J101821D01*
G01*
X138666025Y-72688025D02*
G75*
G03*
X138430016Y-73257839I569775J-569775D01*
G01*
X138741126Y-73971126D02*
G75*
G03*
X139221250Y-74170035I480174J480126D01*
G01*
X142340000Y-72942635D02*
G75*
G03*
X142238190Y-72696810I-347600J35D01*
G01*
X141038180Y-72696820D02*
G75*
G03*
X141241820Y-72696820I101820J101821D01*
G01*
X142238180Y-72696820D02*
G75*
G03*
X141992364Y-72595015I-245780J-245780D01*
G01*
X142441820Y-72696820D02*
G75*
G03*
X142340015Y-72942635I245780J-245780D01*
G01*
X142356599Y-81243549D02*
G75*
G02*
X142340025Y-81203475I40101J40049D01*
G01*
X141241820Y-72696820D02*
G75*
G03*
X141140015Y-72942635I245780J-245780D01*
G01*
X146050000Y-81534000D02*
G75*
G03*
X146483603Y-81354392I0J613200D01*
G01*
D24*
X141552394Y-82624394D02*
G75*
G03*
X141986000Y-82804003I433606J433594D01*
G01*
X140864789Y-82296000D02*
G75*
G02*
X141478003Y-82549997I11J-867200D01*
G01*
D25*
X141487635Y-72595000D02*
G75*
G03*
X141241810Y-72696810I-35J-347600D01*
G01*
X146716551Y-73575191D02*
G75*
G02*
X147114974Y-74537130I-961951J-961909D01*
G01*
X142687635Y-72595000D02*
G75*
G03*
X142441810Y-72696810I-35J-347600D01*
G01*
X146016628Y-72875268D02*
G75*
G03*
X145340000Y-72595001I-676628J-676632D01*
G01*
X145087635Y-72595000D02*
G75*
G03*
X144841810Y-72696810I-35J-347600D01*
G01*
X145616394Y-81354394D02*
G75*
G03*
X146050000Y-81534003I433606J433594D01*
G01*
X145140000Y-80542750D02*
G75*
G03*
X145377075Y-81115039I809400J50D01*
G01*
X142340000Y-81156525D02*
G75*
G02*
X142323393Y-81196592I-56700J25D01*
G01*
D24*
X145034000Y-84208526D02*
G75*
G03*
X144759286Y-83545254I-938000J26D01*
G01*
D25*
X139235839Y-72452000D02*
G75*
G03*
X138666013Y-72688013I-39J-805800D01*
G01*
X141478000Y-82042000D02*
G75*
G02*
X140864789Y-82295996I-613200J613200D01*
G01*
X147113180Y-75171820D02*
G75*
G02*
X147114994Y-75176213I-4380J-4380D01*
G01*
X141478000Y-82042000D02*
G75*
G03*
X141478000Y-82550000I254000J-254000D01*
G01*
D24*
X144759270Y-84871781D02*
G75*
G03*
X145034013Y-84208526I-663270J663281D01*
G01*
X145393210Y-82444789D02*
G75*
G02*
X144526000Y-82804005I-867210J867189D01*
G01*
D25*
X147115000Y-75163786D02*
G75*
G02*
X147113184Y-75168184I-6200J-14D01*
G01*
X147113180Y-75168180D02*
G75*
G03*
X147113180Y-75171820I1820J-1820D01*
G01*
X144740000Y-72942635D02*
G75*
G03*
X144638190Y-72696810I-347600J35D01*
G01*
X141140000Y-72942635D02*
G75*
G03*
X141038190Y-72696810I-347600J35D01*
G01*
X142340000Y-81203475D02*
G75*
G03*
X142323442Y-81196641I-9700J-25D01*
G01*
X144638180Y-72696820D02*
G75*
G03*
X144392364Y-72595015I-245780J-245780D01*
G01*
D24*
X146124394Y-81713605D02*
G75*
G03*
X146050000Y-81533983I-74394J74405D01*
G01*
D25*
X140966680Y-72625320D02*
G75*
G03*
X140548248Y-72451980I-418480J-418480D01*
G01*
D24*
X133078246Y-81531298D02*
G75*
G02*
X132963526Y-81254276I277054J276998D01*
G01*
X143758880Y-85344000D02*
G75*
G03*
X144660532Y-84970532I20J1275100D01*
G01*
X136492499Y-84945551D02*
G75*
G03*
X137454438Y-85343969I961901J961951D01*
G01*
D25*
X138430000Y-73299375D02*
G75*
G03*
X138684993Y-73915007I870600J-25D01*
G01*
X147115000Y-80159509D02*
G75*
G02*
X146716550Y-81121446I-1360400J9D01*
G01*
X144841820Y-72696820D02*
G75*
G03*
X144740015Y-72942635I245780J-245780D01*
G01*
%TO.N,D+*%
X126714751Y-77917838D02*
X127384271Y-77248318D01*
X127500000Y-77229656D02*
X127500000Y-78740000D01*
X127462295Y-77216000D02*
X127508000Y-77216000D01*
X127504000Y-77220000D02*
X127508000Y-77216000D01*
X144688794Y-81472156D02*
X144637588Y-81523362D01*
X144740000Y-81348533D02*
X144740000Y-80207500D01*
X144740000Y-81348533D02*
G75*
G02*
X144688771Y-81472133I-174800J33D01*
G01*
X127500000Y-77229656D02*
G75*
G02*
X127504033Y-77220034I13600J-44D01*
G01*
X126714751Y-77917838D02*
G75*
G03*
X126499993Y-78436295I518449J-518462D01*
G01*
X127384271Y-77248318D02*
G75*
G02*
X127462295Y-77215984I78029J-77982D01*
G01*
D24*
%TO.N,VBUS*%
X125219250Y-79684249D02*
X125053292Y-79518291D01*
X128524000Y-83058000D02*
X130575830Y-83058000D01*
X128037750Y-80053500D02*
X129010250Y-80053500D01*
X129150000Y-80053500D02*
X129010250Y-80053500D01*
X129650000Y-79490500D02*
X129650000Y-78740000D01*
X128037750Y-80053500D02*
X126110700Y-80053500D01*
X128524000Y-80539750D02*
X128524000Y-81026000D01*
X130048101Y-80451601D02*
X130688500Y-81092000D01*
X130048101Y-80451601D02*
G75*
G03*
X129150001Y-80053480I-931201J-888599D01*
G01*
X130048101Y-80451601D02*
G75*
G02*
X129649999Y-79490500I961099J961101D01*
G01*
X125053292Y-79518291D02*
G75*
G02*
X124850005Y-79027499I490808J490791D01*
G01*
X129150000Y-80053500D02*
G75*
G03*
X129650025Y-79490499I-33500J533300D01*
G01*
X128524000Y-80539750D02*
G75*
G02*
X129010250Y-80053500I486200J50D01*
G01*
X125219250Y-79684249D02*
G75*
G03*
X126110700Y-80053500I891450J891449D01*
G01*
X128037750Y-80053500D02*
G75*
G02*
X128524000Y-80539750I-50J-486300D01*
G01*
%TO.N,Net-(J1-CC2)*%
X132299226Y-74822500D02*
X132153554Y-74968176D01*
X133234733Y-74435000D02*
X134340000Y-74435000D01*
X131569751Y-75210000D02*
X128950726Y-75210000D01*
X127988787Y-75608448D02*
X125727251Y-77869984D01*
X125727251Y-77869984D02*
G75*
G03*
X125500016Y-78418618I548649J-548616D01*
G01*
X132299226Y-74822500D02*
G75*
G02*
X133234733Y-74435022I935474J-935500D01*
G01*
X127988787Y-75608448D02*
G75*
G02*
X128950726Y-75210022I961913J-961952D01*
G01*
X131569751Y-75210000D02*
G75*
G03*
X132153576Y-74968198I49J825600D01*
G01*
%TO.N,D-*%
X129286000Y-76327000D02*
X129286000Y-76500920D01*
X129058536Y-76902302D02*
X128275474Y-77685365D01*
D25*
X144119559Y-81051440D02*
X143637000Y-81534000D01*
D24*
X129128191Y-76832647D02*
X129058536Y-76902302D01*
X129128191Y-76832647D02*
X129163019Y-76797820D01*
D25*
X127519295Y-79629000D02*
X127480704Y-79629000D01*
X127140795Y-79488205D02*
G75*
G02*
X127000002Y-79148295I339905J339905D01*
G01*
D24*
X129163019Y-76797820D02*
G75*
G03*
X129286008Y-76500920I-296919J296920D01*
G01*
D25*
X127519295Y-79629000D02*
G75*
G03*
X127859206Y-79488206I5J480700D01*
G01*
X127859205Y-79488205D02*
G75*
G03*
X127999998Y-79148295I-339905J339905D01*
G01*
X144119559Y-81051440D02*
G75*
G03*
X144340044Y-80519250I-532159J532240D01*
G01*
X127140795Y-79488205D02*
G75*
G03*
X127480704Y-79628998I339905J339905D01*
G01*
D24*
X128275474Y-77685365D02*
G75*
G03*
X128000005Y-78350420I665026J-665035D01*
G01*
%TO.N,Net-(J1-CC1)*%
X129004267Y-77592968D02*
X128727251Y-77869984D01*
X129376101Y-77438949D02*
X130216602Y-76598448D01*
X131178541Y-76200000D02*
X134340000Y-76200000D01*
X129004267Y-77592968D02*
G75*
G02*
X129190184Y-77515952I185933J-185932D01*
G01*
X128727251Y-77869984D02*
G75*
G03*
X128500016Y-78418618I548649J-548616D01*
G01*
X131178541Y-76200000D02*
G75*
G03*
X130216579Y-76598425I-41J-1360400D01*
G01*
X129376101Y-77438949D02*
G75*
G02*
X129190184Y-77515938I-185901J185949D01*
G01*
%TO.N,Net-(U1-CHIP_PU{slash}RESET)*%
X140306161Y-73298661D02*
X140237250Y-73229750D01*
X140315000Y-73320000D02*
X140315000Y-73332500D01*
X160528000Y-75184000D02*
X162626067Y-75184000D01*
D25*
X162778000Y-75335932D02*
X162778000Y-83223000D01*
D24*
X139192000Y-73152000D02*
X140049544Y-73152000D01*
X162733500Y-75228500D02*
G75*
G03*
X162626067Y-75184013I-107400J-107400D01*
G01*
X162733500Y-75228500D02*
G75*
G02*
X162777987Y-75335932I-107400J-107400D01*
G01*
X140306161Y-73298661D02*
G75*
G02*
X140314993Y-73320000I-21361J-21339D01*
G01*
X140237250Y-73229750D02*
G75*
G03*
X140049544Y-73151981I-187750J-187750D01*
G01*
%TO.N,Net-(U1-GPIO0{slash}BOOT)*%
X151892000Y-75184000D02*
X149793932Y-75184000D01*
X149642000Y-75335932D02*
X149642000Y-83223000D01*
D25*
X137922000Y-76454000D02*
X138289039Y-76086960D01*
X139054250Y-75770000D02*
X139502500Y-75770000D01*
X139054250Y-75770000D02*
G75*
G03*
X138289009Y-76086930I-50J-1082200D01*
G01*
D24*
%TO.N,BTN2*%
X162200789Y-93218000D02*
X152214012Y-93218000D01*
X146558000Y-89513210D02*
X146558000Y-108606789D01*
X153013210Y-103886000D02*
X160676789Y-103886000D01*
X149098000Y-106066789D02*
X149098000Y-92161611D01*
X160528000Y-96625210D02*
X160528000Y-102002789D01*
X153521210Y-103378000D02*
X160168789Y-103378000D01*
X166116000Y-107590789D02*
X166116000Y-91037210D01*
X158644789Y-96774000D02*
X155553210Y-96774000D01*
X146050000Y-89005210D02*
X146050000Y-109114789D01*
X154537210Y-102362000D02*
X159152789Y-102362000D01*
X147933210Y-89154000D02*
X166264789Y-89154000D01*
X145542000Y-109622789D02*
X145542000Y-88497210D01*
D25*
X137922000Y-78905320D02*
X137922000Y-78994000D01*
D24*
X156643605Y-99822000D02*
X157046394Y-99822000D01*
X166264789Y-109474000D02*
X147425210Y-109474000D01*
X154178000Y-100986789D02*
X154178000Y-97133210D01*
X153162000Y-96117210D02*
X153162000Y-102002789D01*
X157077210Y-98298000D02*
X157120789Y-98298000D01*
X156061210Y-97282000D02*
X158136789Y-97282000D01*
X161692789Y-104902000D02*
X151997210Y-104902000D01*
X162200789Y-105410000D02*
X151489210Y-105410000D01*
X150981210Y-105918000D02*
X162708789Y-105918000D01*
X167788789Y-87630000D02*
X146409210Y-87630000D01*
X152654000Y-102510789D02*
X152654000Y-95826012D01*
X162560000Y-104034789D02*
X162560000Y-94593210D01*
X149965210Y-106934000D02*
X163724789Y-106934000D01*
X157628789Y-97790000D02*
X156569210Y-97790000D01*
X168656000Y-88497210D02*
X168656000Y-110130789D01*
X164084000Y-105558789D02*
X164084000Y-93069210D01*
X156210000Y-99388394D02*
X156210000Y-99165210D01*
X168148000Y-89005210D02*
X168148000Y-109622789D01*
X147425210Y-88646000D02*
X166772789Y-88646000D01*
X164740789Y-107950000D02*
X148949210Y-107950000D01*
X148590000Y-106574789D02*
X148590000Y-91545210D01*
X158136789Y-101346000D02*
X155553210Y-101346000D01*
X156569210Y-100330000D02*
X157120789Y-100330000D01*
X149606000Y-105558789D02*
X149606000Y-92778012D01*
X158496000Y-99970789D02*
X158496000Y-98657210D01*
X156972000Y-99314000D02*
X156972000Y-98933000D01*
X150622000Y-93794012D02*
X150622000Y-104542789D01*
X146334815Y-110998000D02*
X167788789Y-110998000D01*
X157988000Y-99462789D02*
X157988000Y-99165210D01*
X148082000Y-107082789D02*
X148082000Y-91037210D01*
X152146000Y-95209611D02*
X152146000Y-103018789D01*
X161036000Y-96117210D02*
X161036000Y-102510789D01*
X149457210Y-107442000D02*
X164232789Y-107442000D01*
X157353000Y-98933000D02*
X157315802Y-98895802D01*
X154029210Y-102870000D02*
X159660789Y-102870000D01*
X165100000Y-106574789D02*
X165100000Y-92053210D01*
X150690012Y-91694000D02*
X163724789Y-91694000D01*
X165248789Y-108458000D02*
X148441210Y-108458000D01*
X159004000Y-100478789D02*
X159004000Y-98149210D01*
X147066000Y-90021210D02*
X147066000Y-108098789D01*
X161544000Y-95609210D02*
X161544000Y-103018789D01*
X163576000Y-105050789D02*
X163576000Y-93577210D01*
X147574000Y-90529210D02*
X147574000Y-107590789D01*
X155194000Y-99970789D02*
X155194000Y-98149210D01*
X154537210Y-95758000D02*
X159660789Y-95758000D01*
X153670000Y-101494789D02*
X153670000Y-96625210D01*
X152505210Y-104394000D02*
X161184789Y-104394000D01*
X145415000Y-110617000D02*
X145034000Y-110236000D01*
X162708789Y-92710000D02*
X151706012Y-92710000D01*
X148441210Y-89662000D02*
X165756789Y-89662000D01*
X150473210Y-106426000D02*
X163216789Y-106426000D01*
X153738012Y-94742000D02*
X160676789Y-94742000D01*
X163068000Y-94085210D02*
X163068000Y-104542789D01*
X146917210Y-109982000D02*
X166772789Y-109982000D01*
X164592000Y-106066789D02*
X164592000Y-92561210D01*
X162052000Y-95101210D02*
X162052000Y-103526789D01*
X155702000Y-98657210D02*
X155702000Y-99462789D01*
X159512000Y-100986789D02*
X159512000Y-97641210D01*
X153121611Y-94234000D02*
X161184789Y-94234000D01*
X155045210Y-101854000D02*
X158644789Y-101854000D01*
X149457210Y-90678000D02*
X164740789Y-90678000D01*
X160020000Y-97133210D02*
X160020000Y-101494789D01*
X157480000Y-99388394D02*
X157480000Y-99239605D01*
X164232789Y-91186000D02*
X150073611Y-91186000D01*
X151638000Y-94701611D02*
X151638000Y-103526789D01*
X148949210Y-90170000D02*
X165248789Y-90170000D01*
X159152789Y-96266000D02*
X155045210Y-96266000D01*
D25*
X137984706Y-78753933D02*
X138779891Y-77958747D01*
D24*
X165756789Y-108966000D02*
X147933210Y-108966000D01*
X151130000Y-94302012D02*
X151130000Y-104034789D01*
X154686000Y-100478789D02*
X154686000Y-97641210D01*
X167132000Y-108606789D02*
X167132000Y-90021210D01*
X163216789Y-92202000D02*
X151198012Y-92202000D01*
X165608000Y-107082789D02*
X165608000Y-91545210D01*
X167280789Y-88138000D02*
X146917210Y-88138000D01*
X146409210Y-110490000D02*
X167280789Y-110490000D01*
X166624000Y-108098789D02*
X166624000Y-90529210D01*
X154029210Y-95250000D02*
X160168789Y-95250000D01*
X152613611Y-93726000D02*
X161692789Y-93726000D01*
X157628789Y-100838000D02*
X156061210Y-100838000D01*
X167640000Y-89513210D02*
X167640000Y-109114789D01*
X150114000Y-105050789D02*
X150114000Y-93286012D01*
X152400000Y-103632000D02*
G75*
G03*
X153013210Y-103885996I613200J613200D01*
G01*
X148949210Y-107950000D02*
G75*
G02*
X148335997Y-107696003I-10J867200D01*
G01*
X163322000Y-105664000D02*
G75*
G02*
X162708789Y-105917996I-613200J613200D01*
G01*
X164084000Y-105558789D02*
G75*
G02*
X163830003Y-106172003I-867200J-11D01*
G01*
X147320000Y-108712000D02*
G75*
G02*
X147066004Y-108098789I613200J613200D01*
G01*
X160782000Y-95504000D02*
G75*
G03*
X160168789Y-95250004I-613200J-613200D01*
G01*
X158644789Y-101854000D02*
G75*
G03*
X159258003Y-101600003I11J867200D01*
G01*
X159766000Y-102108000D02*
G75*
G03*
X160019996Y-101494789I-613200J613200D01*
G01*
X157480000Y-99388394D02*
G75*
G02*
X157353002Y-99695002I-433600J-6D01*
G01*
X157628789Y-100838000D02*
G75*
G03*
X158242003Y-100584003I11J867200D01*
G01*
X164338000Y-91948000D02*
G75*
G03*
X163724789Y-91694004I-613200J-613200D01*
G01*
X154686000Y-100478789D02*
G75*
G03*
X154939997Y-101092003I867200J-11D01*
G01*
X167894000Y-110236000D02*
G75*
G02*
X167280789Y-110489996I-613200J613200D01*
G01*
X165756789Y-108966000D02*
G75*
G03*
X166370003Y-108712003I11J867200D01*
G01*
X155553210Y-101346000D02*
G75*
G02*
X154939997Y-101092003I-10J867200D01*
G01*
X146050000Y-89005210D02*
G75*
G02*
X146303997Y-88391997I867200J10D01*
G01*
X157988000Y-99462789D02*
G75*
G02*
X157734003Y-100076003I-867200J-11D01*
G01*
X160274000Y-102616000D02*
G75*
G02*
X159660789Y-102869996I-613200J613200D01*
G01*
X161290000Y-103632000D02*
G75*
G02*
X160676789Y-103885996I-613200J613200D01*
G01*
X155553210Y-96774000D02*
G75*
G03*
X154939997Y-97027997I-10J-867200D01*
G01*
X164592000Y-92561210D02*
G75*
G03*
X164338003Y-91947997I-867200J10D01*
G01*
X160782000Y-103124000D02*
G75*
G02*
X160168789Y-103377996I-613200J613200D01*
G01*
X158750000Y-97536000D02*
G75*
G03*
X158136789Y-97282004I-613200J-613200D01*
G01*
X145796000Y-110236000D02*
G75*
G03*
X146409210Y-110489996I613200J613200D01*
G01*
X161692789Y-93726000D02*
G75*
G02*
X162306003Y-93979997I11J-867200D01*
G01*
X147320000Y-108712000D02*
G75*
G03*
X147933210Y-108965996I613200J613200D01*
G01*
X166264789Y-109474000D02*
G75*
G03*
X166878003Y-109220003I11J867200D01*
G01*
X148336000Y-90424000D02*
G75*
G03*
X148082004Y-91037210I613200J-613200D01*
G01*
X163216789Y-92202000D02*
G75*
G02*
X163830003Y-92455997I11J-867200D01*
G01*
X163322000Y-92964000D02*
G75*
G02*
X163575996Y-93577210I-613200J-613200D01*
G01*
X150981210Y-105918000D02*
G75*
G02*
X150367997Y-105664003I-10J867200D01*
G01*
X167788789Y-87630000D02*
G75*
G02*
X168402003Y-87883997I11J-867200D01*
G01*
X149383750Y-91471750D02*
G75*
G02*
X150073611Y-91186005I689850J-689850D01*
G01*
X162200789Y-93218000D02*
G75*
G02*
X162814003Y-93471997I11J-867200D01*
G01*
X151130000Y-94302012D02*
G75*
G02*
X151447496Y-93535496I1084000J12D01*
G01*
X148844000Y-90932000D02*
G75*
G03*
X148590004Y-91545210I613200J-613200D01*
G01*
X153416000Y-102616000D02*
G75*
G02*
X153162004Y-102002789I613200J613200D01*
G01*
X168402000Y-110744000D02*
G75*
G03*
X168655996Y-110130789I-613200J613200D01*
G01*
X151923750Y-94011750D02*
G75*
G02*
X152613611Y-93726005I689850J-689850D01*
G01*
X160782000Y-95504000D02*
G75*
G02*
X161035996Y-96117210I-613200J-613200D01*
G01*
X150368000Y-105664000D02*
G75*
G02*
X150114004Y-105050789I613200J613200D01*
G01*
X162560000Y-104034789D02*
G75*
G02*
X162306003Y-104648003I-867200J-11D01*
G01*
X157628789Y-97790000D02*
G75*
G02*
X158242003Y-98043997I11J-867200D01*
G01*
X164846000Y-107188000D02*
G75*
G03*
X165099996Y-106574789I-613200J613200D01*
G01*
X152400000Y-103632000D02*
G75*
G02*
X152146004Y-103018789I613200J613200D01*
G01*
X157734000Y-98552000D02*
G75*
G02*
X157987996Y-99165210I-613200J-613200D01*
G01*
X166878000Y-109220000D02*
G75*
G03*
X167131996Y-108606789I-613200J613200D01*
G01*
X157734000Y-98552000D02*
G75*
G03*
X157120789Y-98298004I-613200J-613200D01*
G01*
X151447500Y-93535500D02*
G75*
G02*
X152214012Y-93218005I766500J-766500D01*
G01*
X161290000Y-103632000D02*
G75*
G03*
X161543996Y-103018789I-613200J613200D01*
G01*
X150939500Y-93027500D02*
G75*
G03*
X150622005Y-93794012I766500J-766500D01*
G01*
X161798000Y-104140000D02*
G75*
G03*
X162051996Y-103526789I-613200J613200D01*
G01*
X161290000Y-94996000D02*
G75*
G03*
X160676789Y-94742004I-613200J-613200D01*
G01*
X167386000Y-88900000D02*
G75*
G03*
X166772789Y-88646004I-613200J-613200D01*
G01*
X167386000Y-88900000D02*
G75*
G02*
X167639996Y-89513210I-613200J-613200D01*
G01*
X147828000Y-89916000D02*
G75*
G03*
X147574004Y-90529210I613200J-613200D01*
G01*
X161798000Y-94488000D02*
G75*
G02*
X162051996Y-95101210I-613200J-613200D01*
G01*
X166772789Y-109982000D02*
G75*
G03*
X167386003Y-109728003I11J867200D01*
G01*
X152431750Y-94519750D02*
G75*
G02*
X153121611Y-94234005I689850J-689850D01*
G01*
X159152789Y-102362000D02*
G75*
G03*
X159766003Y-102108003I11J867200D01*
G01*
X160274000Y-96012000D02*
G75*
G03*
X159660789Y-95758004I-613200J-613200D01*
G01*
X161798000Y-94488000D02*
G75*
G03*
X161184789Y-94234004I-613200J-613200D01*
G01*
X145796000Y-87884000D02*
G75*
G03*
X145542004Y-88497210I613200J-613200D01*
G01*
X165248789Y-108458000D02*
G75*
G03*
X165862003Y-108204003I11J867200D01*
G01*
X165608000Y-107082789D02*
G75*
G02*
X165354003Y-107696003I-867200J-11D01*
G01*
X158496000Y-99970789D02*
G75*
G02*
X158242003Y-100584003I-867200J-11D01*
G01*
X158242000Y-98044000D02*
G75*
G02*
X158495996Y-98657210I-613200J-613200D01*
G01*
X157315802Y-98895802D02*
G75*
G03*
X157099000Y-98805998I-216802J-216798D01*
G01*
X146917210Y-88138000D02*
G75*
G03*
X146303997Y-88391997I-10J-867200D01*
G01*
X146304000Y-109728000D02*
G75*
G02*
X146050004Y-109114789I613200J613200D01*
G01*
X159004000Y-100478789D02*
G75*
G02*
X158750003Y-101092003I-867200J-11D01*
G01*
X149923500Y-92011500D02*
G75*
G03*
X149606005Y-92778012I766500J-766500D01*
G01*
X163068000Y-104542789D02*
G75*
G02*
X162814003Y-105156003I-867200J-11D01*
G01*
X147828000Y-108204000D02*
G75*
G03*
X148441210Y-108457996I613200J613200D01*
G01*
X149098000Y-106066789D02*
G75*
G03*
X149351997Y-106680003I867200J-11D01*
G01*
X166878000Y-89408000D02*
G75*
G02*
X167131996Y-90021210I-613200J-613200D01*
G01*
X161692789Y-104902000D02*
G75*
G03*
X162306003Y-104648003I11J867200D01*
G01*
X167280789Y-88138000D02*
G75*
G02*
X167894003Y-88391997I11J-867200D01*
G01*
X152654000Y-102510789D02*
G75*
G03*
X152907997Y-103124003I867200J-11D01*
G01*
X153521210Y-103378000D02*
G75*
G02*
X152907997Y-103124003I-10J867200D01*
G01*
X167894000Y-110236000D02*
G75*
G03*
X168147996Y-109622789I-613200J613200D01*
G01*
X164740789Y-107950000D02*
G75*
G03*
X165354003Y-107696003I11J867200D01*
G01*
X161290000Y-94996000D02*
G75*
G02*
X161543996Y-95609210I-613200J-613200D01*
G01*
X149457210Y-90678000D02*
G75*
G03*
X148843997Y-90931997I-10J-867200D01*
G01*
X146812000Y-109220000D02*
G75*
G03*
X147425210Y-109473996I613200J613200D01*
G01*
X155448000Y-100584000D02*
G75*
G03*
X156061210Y-100837996I613200J613200D01*
G01*
X160020000Y-97133210D02*
G75*
G03*
X159766003Y-96519997I-867200J10D01*
G01*
X165862000Y-90424000D02*
G75*
G03*
X165248789Y-90170004I-613200J-613200D01*
G01*
X156972000Y-98933000D02*
G75*
G02*
X157099000Y-98806000I127000J0D01*
G01*
X163576000Y-105050789D02*
G75*
G02*
X163322003Y-105664003I-867200J-11D01*
G01*
X160782000Y-103124000D02*
G75*
G03*
X161035996Y-102510789I-613200J613200D01*
G01*
X166370000Y-89916000D02*
G75*
G03*
X165756789Y-89662004I-613200J-613200D01*
G01*
X151384000Y-104648000D02*
G75*
G02*
X151130004Y-104034789I613200J613200D01*
G01*
X159004000Y-98149210D02*
G75*
G03*
X158750003Y-97535997I-867200J10D01*
G01*
X154432000Y-101600000D02*
G75*
G02*
X154178004Y-100986789I613200J613200D01*
G01*
X159258000Y-97028000D02*
G75*
G02*
X159511996Y-97641210I-613200J-613200D01*
G01*
X155956000Y-100076000D02*
G75*
G02*
X155702004Y-99462789I613200J613200D01*
G01*
X154029210Y-95250000D02*
G75*
G03*
X153415997Y-95503997I-10J-867200D01*
G01*
X151923750Y-94011750D02*
G75*
G03*
X151638005Y-94701611I689850J-689850D01*
G01*
X160274000Y-102616000D02*
G75*
G03*
X160527996Y-102002789I-613200J613200D01*
G01*
X150876000Y-105156000D02*
G75*
G02*
X150622004Y-104542789I613200J613200D01*
G01*
X163830000Y-92456000D02*
G75*
G02*
X164083996Y-93069210I-613200J-613200D01*
G01*
X152971500Y-95059500D02*
G75*
G03*
X152654005Y-95826012I766500J-766500D01*
G01*
X155956000Y-100076000D02*
G75*
G03*
X156569210Y-100329996I613200J613200D01*
G01*
X165354000Y-90932000D02*
G75*
G02*
X165607996Y-91545210I-613200J-613200D01*
G01*
X148590000Y-106574789D02*
G75*
G03*
X148843997Y-107188003I867200J-11D01*
G01*
X154686000Y-97641210D02*
G75*
G02*
X154939997Y-97027997I867200J10D01*
G01*
X163724789Y-106934000D02*
G75*
G03*
X164338003Y-106680003I11J867200D01*
G01*
X164846000Y-107188000D02*
G75*
G02*
X164232789Y-107441996I-613200J613200D01*
G01*
X159152789Y-96266000D02*
G75*
G02*
X159766003Y-96519997I11J-867200D01*
G01*
X145415000Y-110617000D02*
G75*
G03*
X146334815Y-110997994I919800J919800D01*
G01*
X147066000Y-90021210D02*
G75*
G02*
X147319997Y-89407997I867200J10D01*
G01*
X153416000Y-102616000D02*
G75*
G03*
X154029210Y-102869996I613200J613200D01*
G01*
X164592000Y-106066789D02*
G75*
G02*
X164338003Y-106680003I-867200J-11D01*
G01*
X149383750Y-91471750D02*
G75*
G03*
X149098005Y-92161611I689850J-689850D01*
G01*
X157353000Y-98933000D02*
G75*
G02*
X157479998Y-99239605I-306600J-306600D01*
G01*
X150431500Y-92519500D02*
G75*
G03*
X150114005Y-93286012I766500J-766500D01*
G01*
X160274000Y-96012000D02*
G75*
G02*
X160527996Y-96625210I-613200J-613200D01*
G01*
X165862000Y-90424000D02*
G75*
G02*
X166115996Y-91037210I-613200J-613200D01*
G01*
X148082000Y-107082789D02*
G75*
G03*
X148335997Y-107696003I867200J-11D01*
G01*
X159512000Y-100986789D02*
G75*
G02*
X159258003Y-101600003I-867200J-11D01*
G01*
X157734000Y-100076000D02*
G75*
G02*
X157120789Y-100329996I-613200J613200D01*
G01*
X153670000Y-96625210D02*
G75*
G02*
X153923997Y-96011997I867200J10D01*
G01*
X166878000Y-89408000D02*
G75*
G03*
X166264789Y-89154004I-613200J-613200D01*
G01*
X156569210Y-97790000D02*
G75*
G03*
X155955997Y-98043997I-10J-867200D01*
G01*
X167640000Y-109114789D02*
G75*
G02*
X167386003Y-109728003I-867200J-11D01*
G01*
X147828000Y-108204000D02*
G75*
G02*
X147574004Y-107590789I613200J613200D01*
G01*
X152431750Y-94519750D02*
G75*
G03*
X152146005Y-95209611I689850J-689850D01*
G01*
X156464000Y-98552000D02*
G75*
G03*
X156210004Y-99165210I613200J-613200D01*
G01*
D25*
X137984706Y-78753933D02*
G75*
G03*
X137922016Y-78905320I151394J-151367D01*
G01*
D24*
X162708789Y-92710000D02*
G75*
G02*
X163322003Y-92963997I11J-867200D01*
G01*
X164232789Y-91186000D02*
G75*
G02*
X164846003Y-91439997I11J-867200D01*
G01*
X154537210Y-95758000D02*
G75*
G03*
X153923997Y-96011997I-10J-867200D01*
G01*
X147828000Y-89916000D02*
G75*
G02*
X148441210Y-89662004I613200J-613200D01*
G01*
X155448000Y-97536000D02*
G75*
G03*
X155194004Y-98149210I613200J-613200D01*
G01*
X156337000Y-99695000D02*
G75*
G02*
X156210002Y-99388394I306600J306600D01*
G01*
X151384000Y-104648000D02*
G75*
G03*
X151997210Y-104901996I613200J613200D01*
G01*
X153162000Y-96117210D02*
G75*
G02*
X153415997Y-95503997I867200J10D01*
G01*
X149965210Y-106934000D02*
G75*
G02*
X149351997Y-106680003I-10J867200D01*
G01*
X153738012Y-94742000D02*
G75*
G03*
X152971496Y-95059496I-12J-1084000D01*
G01*
X147425210Y-88646000D02*
G75*
G03*
X146811997Y-88899997I-10J-867200D01*
G01*
X166624000Y-108098789D02*
G75*
G02*
X166370003Y-108712003I-867200J-11D01*
G01*
X161798000Y-104140000D02*
G75*
G02*
X161184789Y-104393996I-613200J613200D01*
G01*
X164846000Y-91440000D02*
G75*
G02*
X165099996Y-92053210I-613200J-613200D01*
G01*
X151892000Y-104140000D02*
G75*
G02*
X151638004Y-103526789I613200J613200D01*
G01*
X167894000Y-88392000D02*
G75*
G02*
X168147996Y-89005210I-613200J-613200D01*
G01*
X148949210Y-90170000D02*
G75*
G03*
X148335997Y-90423997I-10J-867200D01*
G01*
X149860000Y-106172000D02*
G75*
G02*
X149606004Y-105558789I613200J613200D01*
G01*
X163216789Y-106426000D02*
G75*
G03*
X163830003Y-106172003I11J867200D01*
G01*
X168402000Y-110744000D02*
G75*
G02*
X167788789Y-110997996I-613200J613200D01*
G01*
X155956000Y-98044000D02*
G75*
G03*
X155702004Y-98657210I613200J-613200D01*
G01*
X153670000Y-101494789D02*
G75*
G03*
X153923997Y-102108003I867200J-11D01*
G01*
X156643605Y-99822000D02*
G75*
G02*
X156336998Y-99695002I-5J433600D01*
G01*
X157353000Y-99695000D02*
G75*
G02*
X157046394Y-99821998I-306600J306600D01*
G01*
X158136789Y-101346000D02*
G75*
G03*
X158750003Y-101092003I11J867200D01*
G01*
X147933210Y-89154000D02*
G75*
G03*
X147319997Y-89407997I-10J-867200D01*
G01*
X150431500Y-92519500D02*
G75*
G02*
X151198012Y-92202005I766500J-766500D01*
G01*
X156061210Y-97282000D02*
G75*
G03*
X155447997Y-97535997I-10J-867200D01*
G01*
X168656000Y-88497210D02*
G75*
G03*
X168402003Y-87883997I-867200J10D01*
G01*
X165354000Y-90932000D02*
G75*
G03*
X164740789Y-90678004I-613200J-613200D01*
G01*
X154537210Y-102362000D02*
G75*
G02*
X153923997Y-102108003I-10J867200D01*
G01*
X163068000Y-94085210D02*
G75*
G03*
X162814003Y-93471997I-867200J10D01*
G01*
X166624000Y-90529210D02*
G75*
G03*
X166370003Y-89915997I-867200J10D01*
G01*
X150690012Y-91694000D02*
G75*
G03*
X149923496Y-92011496I-12J-1084000D01*
G01*
X146558000Y-89513210D02*
G75*
G02*
X146811997Y-88899997I867200J10D01*
G01*
X158644789Y-96774000D02*
G75*
G02*
X159258003Y-97027997I11J-867200D01*
G01*
D25*
X138779891Y-77958747D02*
G75*
G02*
X139235570Y-77769970I455709J-455653D01*
G01*
D24*
X154178000Y-97133210D02*
G75*
G02*
X154431997Y-96519997I867200J10D01*
G01*
X154432000Y-101600000D02*
G75*
G03*
X155045210Y-101853996I613200J613200D01*
G01*
X149457210Y-107442000D02*
G75*
G02*
X148843997Y-107188003I-10J867200D01*
G01*
X151892000Y-104140000D02*
G75*
G03*
X152505210Y-104393996I613200J613200D01*
G01*
X162306000Y-93980000D02*
G75*
G02*
X162559996Y-94593210I-613200J-613200D01*
G01*
X162200789Y-105410000D02*
G75*
G03*
X162814003Y-105156003I11J867200D01*
G01*
X146812000Y-109220000D02*
G75*
G02*
X146558004Y-108606789I613200J613200D01*
G01*
X146304000Y-109728000D02*
G75*
G03*
X146917210Y-109981996I613200J613200D01*
G01*
X150876000Y-105156000D02*
G75*
G03*
X151489210Y-105409996I613200J613200D01*
G01*
X146409210Y-87630000D02*
G75*
G03*
X145795997Y-87883997I-10J-867200D01*
G01*
X157077210Y-98298000D02*
G75*
G03*
X156463997Y-98551997I-10J-867200D01*
G01*
X155045210Y-96266000D02*
G75*
G03*
X154431997Y-96519997I-10J-867200D01*
G01*
X150939500Y-93027500D02*
G75*
G02*
X151706012Y-92710005I766500J-766500D01*
G01*
X145542000Y-109622789D02*
G75*
G03*
X145795997Y-110236003I867200J-11D01*
G01*
X166116000Y-107590789D02*
G75*
G02*
X165862003Y-108204003I-867200J-11D01*
G01*
X149860000Y-106172000D02*
G75*
G03*
X150473210Y-106425996I613200J613200D01*
G01*
X155448000Y-100584000D02*
G75*
G02*
X155194004Y-99970789I613200J613200D01*
G01*
%TO.N,BTN1*%
X132154394Y-99822000D02*
X131751605Y-99822000D01*
X126597210Y-92710000D02*
X137816789Y-92710000D01*
X139340789Y-107442000D02*
X124565210Y-107442000D01*
X122533210Y-109474000D02*
X141372789Y-109474000D01*
X125222000Y-105050789D02*
X125222000Y-93069210D01*
X141880789Y-109982000D02*
X122025210Y-109982000D01*
X128121210Y-103886000D02*
X135784789Y-103886000D01*
X130661210Y-96774000D02*
X133752789Y-96774000D01*
X136800789Y-104902000D02*
X127105210Y-104902000D01*
X136800789Y-93726000D02*
X127613210Y-93726000D01*
X123549210Y-89662000D02*
X140864789Y-89662000D01*
X126238000Y-104034789D02*
X126238000Y-94085210D01*
X124565210Y-90678000D02*
X139848789Y-90678000D01*
X128229611Y-94234000D02*
X136292789Y-94234000D01*
X132588000Y-99239605D02*
X132588000Y-99388394D01*
X123041210Y-89154000D02*
X141372789Y-89154000D01*
X140716000Y-107082789D02*
X140716000Y-91545210D01*
X128778000Y-101494789D02*
X128778000Y-96625210D01*
X129645210Y-95758000D02*
X134768789Y-95758000D01*
X142896789Y-87630000D02*
X121517210Y-87630000D01*
X140208000Y-92053210D02*
X140208000Y-106574789D01*
X138684000Y-105050789D02*
X138684000Y-93577210D01*
X126746000Y-94593210D02*
X126746000Y-103526789D01*
X139340789Y-91186000D02*
X125073210Y-91186000D01*
X139848789Y-107950000D02*
X124057210Y-107950000D01*
X122174000Y-90021210D02*
X122174000Y-108098789D01*
X126597210Y-105410000D02*
X137308789Y-105410000D01*
X130302000Y-98149210D02*
X130302000Y-99970789D01*
X129645210Y-102362000D02*
X134260789Y-102362000D01*
X138324789Y-92202000D02*
X126089210Y-92202000D01*
X142388789Y-110490000D02*
X121517210Y-110490000D01*
X123041210Y-108966000D02*
X140864789Y-108966000D01*
X137668000Y-104034789D02*
X137668000Y-94593210D01*
X141880789Y-88646000D02*
X122533210Y-88646000D01*
X131318000Y-99388394D02*
X131318000Y-99165210D01*
X142388789Y-88138000D02*
X122025210Y-88138000D01*
X124206000Y-92053210D02*
X124206000Y-106066789D01*
X133244789Y-101346000D02*
X130661210Y-101346000D01*
X134620000Y-97641210D02*
X134620000Y-100986789D01*
X129137210Y-102870000D02*
X134768789Y-102870000D01*
X138832789Y-91694000D02*
X125581210Y-91694000D01*
X127762000Y-95717611D02*
X127762000Y-102510789D01*
X128270000Y-96117210D02*
X128270000Y-102002789D01*
X143256000Y-89005210D02*
X143256000Y-109622789D01*
X135128000Y-101494789D02*
X135128000Y-97133210D01*
X133604000Y-98657210D02*
X133604000Y-99970789D01*
X127613210Y-104394000D02*
X136292789Y-104394000D01*
X122682000Y-90529210D02*
X122682000Y-107590789D01*
X137160000Y-95101210D02*
X137160000Y-103526789D01*
X133096000Y-99165210D02*
X133096000Y-99462789D01*
X132228789Y-98298000D02*
X132185210Y-98298000D01*
X142896789Y-110998000D02*
X121442815Y-110998000D01*
X134112000Y-98149210D02*
X134112000Y-100478789D01*
X142240000Y-90021210D02*
X142240000Y-108606789D01*
X138324789Y-106426000D02*
X125581210Y-106426000D01*
X137922000Y-77724000D02*
X137922000Y-77597000D01*
X127254000Y-95209611D02*
X127254000Y-103018789D01*
X132080000Y-98933000D02*
X132080000Y-99314000D01*
X129794000Y-97641210D02*
X129794000Y-100478789D01*
X129137210Y-95250000D02*
X135276789Y-95250000D01*
X138832789Y-106934000D02*
X125073210Y-106934000D01*
X129286000Y-100986789D02*
X129286000Y-97133210D01*
X132736789Y-97790000D02*
X131677210Y-97790000D01*
X130810000Y-98657210D02*
X130810000Y-99462789D01*
D25*
X138775553Y-76970000D02*
X139502500Y-76970000D01*
D24*
X123549210Y-108458000D02*
X140356789Y-108458000D01*
X125730000Y-104542789D02*
X125730000Y-93577210D01*
X126089210Y-105918000D02*
X137816789Y-105918000D01*
X123698000Y-91545210D02*
X123698000Y-106574789D01*
X124057210Y-90170000D02*
X140356789Y-90170000D01*
X121666000Y-108606789D02*
X121666000Y-89513210D01*
X142748000Y-89513210D02*
X142748000Y-109114789D01*
X135276789Y-103378000D02*
X128629210Y-103378000D01*
X132461000Y-98933000D02*
X132423802Y-98895802D01*
X132228789Y-100330000D02*
X131677210Y-100330000D01*
X135784789Y-94742000D02*
X128737611Y-94742000D01*
X141224000Y-91037210D02*
X141224000Y-107590789D01*
X137308789Y-93218000D02*
X127105210Y-93218000D01*
X133244789Y-97282000D02*
X131169210Y-97282000D01*
X136652000Y-103018789D02*
X136652000Y-95609210D01*
X139700000Y-106066789D02*
X139700000Y-92561210D01*
X124714000Y-92561210D02*
X124714000Y-105558789D01*
X123190000Y-91037210D02*
X123190000Y-107082789D01*
X143764000Y-88497210D02*
X143764000Y-110130789D01*
X141732000Y-108098789D02*
X141732000Y-90529210D01*
X130153210Y-101854000D02*
X133752789Y-101854000D01*
X120523000Y-110617000D02*
X120142000Y-110236000D01*
X134260789Y-96266000D02*
X130153210Y-96266000D01*
X136144000Y-96117210D02*
X136144000Y-102510789D01*
X121158000Y-89005210D02*
X121158000Y-109114789D01*
X132736789Y-100838000D02*
X131169210Y-100838000D01*
X135636000Y-102002789D02*
X135636000Y-96625210D01*
D25*
X138011802Y-77380197D02*
X138172000Y-77220000D01*
D24*
X120650000Y-88497210D02*
X120650000Y-109622789D01*
X139192000Y-105558789D02*
X139192000Y-93069210D01*
X138176000Y-94085210D02*
X138176000Y-104542789D01*
X135382000Y-96012000D02*
G75*
G02*
X135635996Y-96625210I-613200J-613200D01*
G01*
X128524000Y-102616000D02*
G75*
G02*
X128270004Y-102002789I613200J613200D01*
G01*
X135128000Y-101494789D02*
G75*
G02*
X134874003Y-102108003I-867200J-11D01*
G01*
X120904000Y-110236000D02*
G75*
G02*
X120650004Y-109622789I613200J613200D01*
G01*
X122025210Y-88138000D02*
G75*
G03*
X121411997Y-88391997I-10J-867200D01*
G01*
X142748000Y-89513210D02*
G75*
G03*
X142494003Y-88899997I-867200J10D01*
G01*
X124968000Y-106172000D02*
G75*
G02*
X124714004Y-105558789I613200J613200D01*
G01*
X121412000Y-109728000D02*
G75*
G02*
X121158004Y-109114789I613200J613200D01*
G01*
X124565210Y-90678000D02*
G75*
G03*
X123951997Y-90931997I-10J-867200D01*
G01*
X137160000Y-103526789D02*
G75*
G02*
X136906003Y-104140003I-867200J-11D01*
G01*
X129032000Y-96012000D02*
G75*
G03*
X128778004Y-96625210I613200J-613200D01*
G01*
X126597210Y-92710000D02*
G75*
G03*
X125983997Y-92963997I-10J-867200D01*
G01*
X129032000Y-102108000D02*
G75*
G02*
X128778004Y-101494789I613200J613200D01*
G01*
X121412000Y-109728000D02*
G75*
G03*
X122025210Y-109981996I613200J613200D01*
G01*
X133604000Y-98657210D02*
G75*
G03*
X133350003Y-98043997I-867200J10D01*
G01*
X136144000Y-96117210D02*
G75*
G03*
X135890003Y-95503997I-867200J10D01*
G01*
X130048000Y-101092000D02*
G75*
G02*
X129794004Y-100478789I613200J613200D01*
G01*
X138324789Y-106426000D02*
G75*
G03*
X138938003Y-106172003I11J867200D01*
G01*
X123549210Y-89662000D02*
G75*
G03*
X122935997Y-89915997I-10J-867200D01*
G01*
X120904000Y-110236000D02*
G75*
G03*
X121517210Y-110489996I613200J613200D01*
G01*
X136800789Y-104902000D02*
G75*
G03*
X137414003Y-104648003I11J867200D01*
G01*
X132207000Y-98806000D02*
G75*
G02*
X132423801Y-98895803I0J-306600D01*
G01*
X129032000Y-96012000D02*
G75*
G02*
X129645210Y-95758004I613200J-613200D01*
G01*
X129286000Y-100986789D02*
G75*
G03*
X129539997Y-101600003I867200J-11D01*
G01*
X133350000Y-100584000D02*
G75*
G02*
X132736789Y-100837996I-613200J613200D01*
G01*
X143002000Y-110236000D02*
G75*
G03*
X143255996Y-109622789I-613200J613200D01*
G01*
X138684000Y-105050789D02*
G75*
G02*
X138430003Y-105664003I-867200J-11D01*
G01*
X127539750Y-94519750D02*
G75*
G02*
X128229611Y-94234005I689850J-689850D01*
G01*
X126492000Y-93472000D02*
G75*
G03*
X126238004Y-94085210I613200J-613200D01*
G01*
D25*
X138775553Y-76970000D02*
G75*
G03*
X138171984Y-77219984I-53J-853500D01*
G01*
D24*
X130048000Y-101092000D02*
G75*
G03*
X130661210Y-101345996I613200J613200D01*
G01*
X125222000Y-105050789D02*
G75*
G03*
X125475997Y-105664003I867200J-11D01*
G01*
X140462000Y-107696000D02*
G75*
G02*
X139848789Y-107949996I-613200J613200D01*
G01*
X122936000Y-108204000D02*
G75*
G03*
X123549210Y-108457996I613200J613200D01*
G01*
X135890000Y-95504000D02*
G75*
G03*
X135276789Y-95250004I-613200J-613200D01*
G01*
X135890000Y-103124000D02*
G75*
G03*
X136143996Y-102510789I-613200J613200D01*
G01*
X125073210Y-91186000D02*
G75*
G03*
X124459997Y-91439997I-10J-867200D01*
G01*
X127000000Y-104140000D02*
G75*
G03*
X127613210Y-104393996I613200J613200D01*
G01*
X139192000Y-105558789D02*
G75*
G02*
X138938003Y-106172003I-867200J-11D01*
G01*
X130556000Y-100584000D02*
G75*
G02*
X130302004Y-99970789I613200J613200D01*
G01*
X141732000Y-90529210D02*
G75*
G03*
X141478003Y-89915997I-867200J10D01*
G01*
X137922000Y-93472000D02*
G75*
G02*
X138175996Y-94085210I-613200J-613200D01*
G01*
X140970000Y-90424000D02*
G75*
G03*
X140356789Y-90170004I-613200J-613200D01*
G01*
X128524000Y-95504000D02*
G75*
G02*
X129137210Y-95250004I613200J-613200D01*
G01*
X129540000Y-101600000D02*
G75*
G03*
X130153210Y-101853996I613200J613200D01*
G01*
X133350000Y-100584000D02*
G75*
G03*
X133603996Y-99970789I-613200J613200D01*
G01*
X139954000Y-107188000D02*
G75*
G03*
X140207996Y-106574789I-613200J613200D01*
G01*
X120650000Y-88497210D02*
G75*
G02*
X120903997Y-87883997I867200J10D01*
G01*
X140864789Y-89662000D02*
G75*
G02*
X141478003Y-89915997I11J-867200D01*
G01*
X139340789Y-107442000D02*
G75*
G03*
X139954003Y-107188003I11J867200D01*
G01*
X137160000Y-95101210D02*
G75*
G03*
X136906003Y-94487997I-867200J10D01*
G01*
X139954000Y-91440000D02*
G75*
G03*
X139340789Y-91186004I-613200J-613200D01*
G01*
X125730000Y-104542789D02*
G75*
G03*
X125983997Y-105156003I867200J-11D01*
G01*
X137922000Y-105156000D02*
G75*
G02*
X137308789Y-105409996I-613200J613200D01*
G01*
X142388789Y-88138000D02*
G75*
G02*
X143002003Y-88391997I11J-867200D01*
G01*
X138832789Y-106934000D02*
G75*
G03*
X139446003Y-106680003I11J867200D01*
G01*
X129794000Y-97641210D02*
G75*
G02*
X130047997Y-97027997I867200J10D01*
G01*
X137668000Y-104034789D02*
G75*
G02*
X137414003Y-104648003I-867200J-11D01*
G01*
X122936000Y-108204000D02*
G75*
G02*
X122682004Y-107590789I613200J613200D01*
G01*
X139446000Y-91948000D02*
G75*
G03*
X138832789Y-91694004I-613200J-613200D01*
G01*
X126492000Y-93472000D02*
G75*
G02*
X127105210Y-93218004I613200J-613200D01*
G01*
X141986000Y-109220000D02*
G75*
G02*
X141372789Y-109473996I-613200J613200D01*
G01*
X137922000Y-93472000D02*
G75*
G03*
X137308789Y-93218004I-613200J-613200D01*
G01*
X132228789Y-98298000D02*
G75*
G02*
X132842003Y-98551997I11J-867200D01*
G01*
X130302000Y-98149210D02*
G75*
G02*
X130555997Y-97535997I867200J10D01*
G01*
X121158000Y-89005210D02*
G75*
G02*
X121411997Y-88391997I867200J10D01*
G01*
X128629210Y-103378000D02*
G75*
G02*
X128015997Y-103124003I-10J867200D01*
G01*
X124460000Y-106680000D02*
G75*
G03*
X125073210Y-106933996I613200J613200D01*
G01*
X140356789Y-108458000D02*
G75*
G03*
X140970003Y-108204003I11J867200D01*
G01*
X130661210Y-96774000D02*
G75*
G03*
X130047997Y-97027997I-10J-867200D01*
G01*
X142896789Y-87630000D02*
G75*
G02*
X143510003Y-87883997I11J-867200D01*
G01*
X141880789Y-109982000D02*
G75*
G03*
X142494003Y-109728003I11J867200D01*
G01*
X121920000Y-88900000D02*
G75*
G03*
X121666004Y-89513210I613200J-613200D01*
G01*
X142748000Y-109114789D02*
G75*
G02*
X142494003Y-109728003I-867200J-11D01*
G01*
X134112000Y-98149210D02*
G75*
G03*
X133858003Y-97535997I-867200J10D01*
G01*
X138430000Y-105664000D02*
G75*
G02*
X137816789Y-105917996I-613200J613200D01*
G01*
X138430000Y-92964000D02*
G75*
G03*
X137816789Y-92710004I-613200J-613200D01*
G01*
X135784789Y-103886000D02*
G75*
G03*
X136398003Y-103632003I11J867200D01*
G01*
X124968000Y-91948000D02*
G75*
G02*
X125581210Y-91694004I613200J-613200D01*
G01*
X136292789Y-104394000D02*
G75*
G03*
X136906003Y-104140003I11J867200D01*
G01*
X125476000Y-105664000D02*
G75*
G03*
X126089210Y-105917996I613200J613200D01*
G01*
X128047750Y-95027750D02*
G75*
G03*
X127762005Y-95717611I689850J-689850D01*
G01*
X135784789Y-94742000D02*
G75*
G02*
X136398003Y-94995997I11J-867200D01*
G01*
X143764000Y-88497210D02*
G75*
G03*
X143510003Y-87883997I-867200J10D01*
G01*
X135636000Y-102002789D02*
G75*
G02*
X135382003Y-102616003I-867200J-11D01*
G01*
X133244789Y-97282000D02*
G75*
G02*
X133858003Y-97535997I11J-867200D01*
G01*
X143002000Y-110236000D02*
G75*
G02*
X142388789Y-110489996I-613200J613200D01*
G01*
X127000000Y-104140000D02*
G75*
G02*
X126746004Y-103526789I613200J613200D01*
G01*
X136398000Y-94996000D02*
G75*
G02*
X136651996Y-95609210I-613200J-613200D01*
G01*
X126492000Y-104648000D02*
G75*
G03*
X127105210Y-104901996I613200J613200D01*
G01*
X139700000Y-92561210D02*
G75*
G03*
X139446003Y-91947997I-867200J10D01*
G01*
X126238000Y-104034789D02*
G75*
G03*
X126491997Y-104648003I867200J-11D01*
G01*
X123190000Y-91037210D02*
G75*
G02*
X123443997Y-90423997I867200J10D01*
G01*
X134874000Y-96520000D02*
G75*
G02*
X135127996Y-97133210I-613200J-613200D01*
G01*
X132461000Y-99695000D02*
G75*
G03*
X132587998Y-99388394I-306600J306600D01*
G01*
X134874000Y-96520000D02*
G75*
G03*
X134260789Y-96266004I-613200J-613200D01*
G01*
X132842000Y-100076000D02*
G75*
G02*
X132228789Y-100329996I-613200J613200D01*
G01*
X123952000Y-107188000D02*
G75*
G02*
X123698004Y-106574789I613200J613200D01*
G01*
X129540000Y-96520000D02*
G75*
G02*
X130153210Y-96266004I613200J-613200D01*
G01*
D25*
X138011802Y-77380197D02*
G75*
G03*
X137921998Y-77597000I216798J-216803D01*
G01*
D24*
X139700000Y-106066789D02*
G75*
G02*
X139446003Y-106680003I-867200J-11D01*
G01*
X123444000Y-107696000D02*
G75*
G02*
X123190004Y-107082789I613200J613200D01*
G01*
X126746000Y-94593210D02*
G75*
G02*
X126999997Y-93979997I867200J10D01*
G01*
X122174000Y-90021210D02*
G75*
G02*
X122427997Y-89407997I867200J10D01*
G01*
X141372789Y-89154000D02*
G75*
G02*
X141986003Y-89407997I11J-867200D01*
G01*
X132154394Y-99822000D02*
G75*
G03*
X132461002Y-99695002I6J433600D01*
G01*
X143764000Y-110130789D02*
G75*
G02*
X143510003Y-110744003I-867200J-11D01*
G01*
X130810000Y-98657210D02*
G75*
G02*
X131063997Y-98043997I867200J10D01*
G01*
X128524000Y-95504000D02*
G75*
G03*
X128270004Y-96117210I613200J-613200D01*
G01*
X131751605Y-99822000D02*
G75*
G02*
X131444998Y-99695002I-5J433600D01*
G01*
X129286000Y-97133210D02*
G75*
G02*
X129539997Y-96519997I867200J10D01*
G01*
X140462000Y-107696000D02*
G75*
G03*
X140715996Y-107082789I-613200J613200D01*
G01*
X138430000Y-92964000D02*
G75*
G02*
X138683996Y-93577210I-613200J-613200D01*
G01*
X134366000Y-101600000D02*
G75*
G03*
X134619996Y-100986789I-613200J613200D01*
G01*
X132588000Y-99239605D02*
G75*
G03*
X132461002Y-98932998I-433600J5D01*
G01*
X123041210Y-108966000D02*
G75*
G02*
X122427997Y-108712003I-10J867200D01*
G01*
X128524000Y-102616000D02*
G75*
G03*
X129137210Y-102869996I613200J613200D01*
G01*
X122174000Y-108098789D02*
G75*
G03*
X122427997Y-108712003I867200J-11D01*
G01*
X140462000Y-90932000D02*
G75*
G02*
X140715996Y-91545210I-613200J-613200D01*
G01*
X125984000Y-92964000D02*
G75*
G03*
X125730004Y-93577210I613200J-613200D01*
G01*
X125476000Y-92456000D02*
G75*
G02*
X126089210Y-92202004I613200J-613200D01*
G01*
X127508000Y-103632000D02*
G75*
G02*
X127254004Y-103018789I613200J613200D01*
G01*
X140462000Y-90932000D02*
G75*
G03*
X139848789Y-90678004I-613200J-613200D01*
G01*
X134260789Y-102362000D02*
G75*
G03*
X134874003Y-102108003I11J867200D01*
G01*
X135382000Y-96012000D02*
G75*
G03*
X134768789Y-95758004I-613200J-613200D01*
G01*
X122682000Y-90529210D02*
G75*
G02*
X122935997Y-89915997I867200J10D01*
G01*
X136292789Y-94234000D02*
G75*
G02*
X136906003Y-94487997I11J-867200D01*
G01*
X131064000Y-100076000D02*
G75*
G02*
X130810004Y-99462789I613200J613200D01*
G01*
X131064000Y-100076000D02*
G75*
G03*
X131677210Y-100329996I613200J613200D01*
G01*
X131572000Y-98552000D02*
G75*
G03*
X131318004Y-99165210I613200J-613200D01*
G01*
X121517210Y-87630000D02*
G75*
G03*
X120903997Y-87883997I-10J-867200D01*
G01*
X131169210Y-97282000D02*
G75*
G03*
X130555997Y-97535997I-10J-867200D01*
G01*
X136652000Y-103018789D02*
G75*
G02*
X136398003Y-103632003I-867200J-11D01*
G01*
X143256000Y-89005210D02*
G75*
G03*
X143002003Y-88391997I-867200J10D01*
G01*
X137414000Y-93980000D02*
G75*
G02*
X137667996Y-94593210I-613200J-613200D01*
G01*
X127539750Y-94519750D02*
G75*
G03*
X127254005Y-95209611I689850J-689850D01*
G01*
X132842000Y-100076000D02*
G75*
G03*
X133095996Y-99462789I-613200J613200D01*
G01*
X125476000Y-92456000D02*
G75*
G03*
X125222004Y-93069210I613200J-613200D01*
G01*
X134366000Y-97028000D02*
G75*
G02*
X134619996Y-97641210I-613200J-613200D01*
G01*
X131572000Y-98552000D02*
G75*
G02*
X132185210Y-98298004I613200J-613200D01*
G01*
X123952000Y-107188000D02*
G75*
G03*
X124565210Y-107441996I613200J613200D01*
G01*
X128047750Y-95027750D02*
G75*
G02*
X128737611Y-94742005I689850J-689850D01*
G01*
X132736789Y-97790000D02*
G75*
G02*
X133350003Y-98043997I11J-867200D01*
G01*
X135276789Y-103378000D02*
G75*
G03*
X135890003Y-103124003I11J867200D01*
G01*
X121920000Y-109220000D02*
G75*
G02*
X121666004Y-108606789I613200J613200D01*
G01*
X120523000Y-110617000D02*
G75*
G03*
X121442815Y-110997994I919800J919800D01*
G01*
X142896789Y-110998000D02*
G75*
G03*
X143510003Y-110744003I11J867200D01*
G01*
X125984000Y-105156000D02*
G75*
G03*
X126597210Y-105409996I613200J613200D01*
G01*
X123698000Y-91545210D02*
G75*
G02*
X123951997Y-90931997I867200J10D01*
G01*
X141880789Y-88646000D02*
G75*
G02*
X142494003Y-88899997I11J-867200D01*
G01*
X136800789Y-93726000D02*
G75*
G02*
X137414003Y-93979997I11J-867200D01*
G01*
X130556000Y-100584000D02*
G75*
G03*
X131169210Y-100837996I613200J613200D01*
G01*
X124057210Y-90170000D02*
G75*
G03*
X123443997Y-90423997I-10J-867200D01*
G01*
X135382000Y-102616000D02*
G75*
G02*
X134768789Y-102869996I-613200J613200D01*
G01*
X127762000Y-102510789D02*
G75*
G03*
X128015997Y-103124003I867200J-11D01*
G01*
X121920000Y-88900000D02*
G75*
G02*
X122533210Y-88646004I613200J-613200D01*
G01*
X138938000Y-92456000D02*
G75*
G02*
X139191996Y-93069210I-613200J-613200D01*
G01*
X124206000Y-92053210D02*
G75*
G02*
X124459997Y-91439997I867200J10D01*
G01*
X127508000Y-103632000D02*
G75*
G03*
X128121210Y-103885996I613200J613200D01*
G01*
X137922000Y-105156000D02*
G75*
G03*
X138175996Y-104542789I-613200J613200D01*
G01*
X123041210Y-89154000D02*
G75*
G03*
X122427997Y-89407997I-10J-867200D01*
G01*
X138938000Y-92456000D02*
G75*
G03*
X138324789Y-92202004I-613200J-613200D01*
G01*
X132080000Y-98933000D02*
G75*
G02*
X132207000Y-98806000I127000J0D01*
G01*
X124460000Y-106680000D02*
G75*
G02*
X124206004Y-106066789I613200J613200D01*
G01*
X142240000Y-108606789D02*
G75*
G02*
X141986003Y-109220003I-867200J-11D01*
G01*
X121920000Y-109220000D02*
G75*
G03*
X122533210Y-109473996I613200J613200D01*
G01*
X134366000Y-101600000D02*
G75*
G02*
X133752789Y-101853996I-613200J613200D01*
G01*
X142240000Y-90021210D02*
G75*
G03*
X141986003Y-89407997I-867200J10D01*
G01*
X141224000Y-107590789D02*
G75*
G02*
X140970003Y-108204003I-867200J-11D01*
G01*
X129645210Y-102362000D02*
G75*
G02*
X129031997Y-102108003I-10J867200D01*
G01*
X124968000Y-91948000D02*
G75*
G03*
X124714004Y-92561210I613200J-613200D01*
G01*
X133244789Y-101346000D02*
G75*
G03*
X133858003Y-101092003I11J867200D01*
G01*
X123444000Y-107696000D02*
G75*
G03*
X124057210Y-107949996I613200J613200D01*
G01*
X140970000Y-90424000D02*
G75*
G02*
X141223996Y-91037210I-613200J-613200D01*
G01*
X131677210Y-97790000D02*
G75*
G03*
X131063997Y-98043997I-10J-867200D01*
G01*
X127613210Y-93726000D02*
G75*
G03*
X126999997Y-93979997I-10J-867200D01*
G01*
X134112000Y-100478789D02*
G75*
G02*
X133858003Y-101092003I-867200J-11D01*
G01*
X133096000Y-99165210D02*
G75*
G03*
X132842003Y-98551997I-867200J10D01*
G01*
X140864789Y-108966000D02*
G75*
G03*
X141478003Y-108712003I11J867200D01*
G01*
X140208000Y-92053210D02*
G75*
G03*
X139954003Y-91439997I-867200J10D01*
G01*
X124968000Y-106172000D02*
G75*
G03*
X125581210Y-106425996I613200J613200D01*
G01*
X134366000Y-97028000D02*
G75*
G03*
X133752789Y-96774004I-613200J-613200D01*
G01*
X131318000Y-99388394D02*
G75*
G03*
X131444998Y-99695002I433600J-6D01*
G01*
X141732000Y-108098789D02*
G75*
G02*
X141478003Y-108712003I-867200J-11D01*
G01*
%TD*%
M02*
